<?xml version="1.0" standalone="no"?>
<!DOCTYPE svg PUBLIC "-//W3C//DTD SVG 20010904//EN"
 "http://www.w3.org/TR/2001/REC-SVG-20010904/DTD/svg10.dtd">
<svg version="1.0" xmlns="http://www.w3.org/2000/svg"
 width="146.000000pt" height="146.000000pt" viewBox="0 0 146.000000 146.000000"
 preserveAspectRatio="xMidYMid meet">
<metadata>
Created by potrace 1.11, written by Peter Selinger 2001-2013
</metadata>
<g transform="translate(0.000000,146.000000) scale(0.100000,-0.100000)"
fill="#000000" stroke="none">
<path d="M174 1407 c1 -29 5 -58 10 -66 6 -9 5 -12 -2 -7 -13 8 -11 -72 2 -93
6 -10 5 -12 -3 -7 -14 9 -11 -30 3 -53 6 -9 5 -12 -1 -8 -14 8 -12 -192 1
-212 6 -10 6 -12 -3 -7 -14 9 -11 -30 3 -53 6 -10 5 -12 -2 -7 -7 4 -12 1 -12
-8 0 -24 16 -28 113 -28 l92 -1 1 214 0 214 453 3 c295 1 450 6 446 12 -3 6 0
10 7 10 9 0 9 3 -2 10 -13 9 -13 10 0 10 13 0 13 1 0 10 -13 9 -13 10 0 10 13
0 13 1 0 10 -13 9 -13 10 0 10 13 0 13 1 0 10 -13 9 -13 10 0 10 13 0 13 1 0
10 -12 8 -12 10 -1 10 10 0 11 3 2 13 -8 10 -7 17 1 25 10 10 -115 12 -549 12
l-561 -1 2 -52z"/>
<path d="M174 819 c-3 -5 -3 -13 0 -17 2 -4 229 -8 503 -7 436 0 498 2 498 15
0 13 -62 15 -498 16 -274 1 -500 -3 -503 -7z"/>
<path d="M190 767 c0 -5 -4 -6 -9 -2 -6 3 -9 -4 -8 -15 1 -20 7 -20 504 -20
l503 0 -3 22 c-4 21 -47 36 -47 15 0 -5 -7 -4 -15 3 -12 10 -15 10 -15 -1 0
-9 -3 -10 -8 -4 -9 13 -202 13 -202 0 0 -5 -5 -4 -12 3 -14 14 -32 16 -24 4 3
-5 -1 -9 -9 -9 -8 0 -12 3 -11 6 2 3 -38 6 -90 6 -52 0 -94 -3 -94 -7 0 -5 -5
-8 -11 -8 -5 0 -8 4 -5 9 6 10 -51 8 -61 -3 -3 -3 -11 -6 -17 -6 -6 0 -4 5 4
10 11 7 4 8 -23 6 -21 -2 -40 -6 -44 -10 -3 -3 -11 -6 -17 -6 -6 0 -4 5 4 10
11 7 4 8 -23 6 -21 -2 -40 -6 -44 -10 -3 -3 -11 -6 -17 -6 -6 0 -4 5 4 10 11
7 4 8 -23 6 -21 -2 -40 -6 -44 -10 -3 -3 -11 -6 -17 -6 -6 0 -4 5 4 10 11 7 4
8 -23 6 -21 -2 -40 -6 -44 -10 -3 -3 -11 -6 -17 -6 -6 0 -4 5 4 10 11 7 6 9
-17 7 -18 -1 -33 -6 -33 -10z"/>
<path d="M187 712 c-18 -4 -19 -33 0 -51 7 -6 13 -8 13 -2 0 10 19 9 36 -2 6
-3 14 -3 18 0 10 10 117 10 122 1 3 -5 11 -5 17 -1 18 11 36 12 43 2 3 -5 11
-6 17 -2 17 11 57 11 63 1 3 -4 11 -5 17 -1 18 11 36 12 43 2 3 -5 10 -6 16
-2 17 10 78 11 84 1 3 -5 11 -5 17 -1 17 11 57 11 63 1 3 -4 11 -5 17 -1 18
11 51 10 59 -2 5 -7 8 -7 8 1 0 12 58 13 77 1 6 -4 14 -3 17 2 5 8 27 8 46 1
3 -1 10 -1 15 0 41 8 50 8 62 -1 7 -7 13 -7 13 -2 0 5 18 9 40 9 22 0 40 -4
40 -9 0 -5 7 -4 15 3 18 15 20 50 3 51 -30 3 -966 4 -981 1z"/>
<path d="M175 619 c-7 -21 -3 -42 10 -51 6 -5 6 -8 -1 -8 -13 0 -13 -128 1
-149 5 -9 4 -12 -2 -8 -13 8 -11 -132 2 -152 5 -9 4 -12 -3 -7 -7 4 -10 -7 -9
-34 1 -22 6 -40 12 -40 5 0 4 -4 -2 -8 -14 -9 -13 -63 2 -74 6 -5 5 -8 -2 -8
-8 0 -11 -13 -9 -37 l3 -38 552 -3 c369 -1 550 1 546 8 -3 5 -2 10 3 10 10 0
9 30 -2 48 -4 7 -2 12 4 12 7 0 8 6 1 18 -6 10 -6 24 0 34 6 11 4 17 -9 20 -9
2 -214 3 -454 3 -433 -1 -438 0 -439 20 0 11 -1 118 -1 238 -1 192 -3 217 -17
218 -9 1 -53 2 -99 3 -68 1 -83 -2 -87 -15z"/>
</g>
</svg>
