<?xml version="1.0" standalone="no"?>
<!DOCTYPE svg PUBLIC "-//W3C//DTD SVG 20010904//EN"
 "http://www.w3.org/TR/2001/REC-SVG-20010904/DTD/svg10.dtd">
<svg version="1.0" xmlns="http://www.w3.org/2000/svg"
 width="1920.000000pt" height="1897.000000pt" viewBox="0 0 1920.000000 1897.000000"
 preserveAspectRatio="xMidYMid meet">

<g transform="translate(0.000000,1897.000000) scale(0.100000,-0.100000)"
fill="#3cf800" stroke="none">
<path d="M14475 18604 c-48 -25 -95 -75 -107 -116 l-11 -38 -1615 0 -1615 0 7
-202 c3 -112 9 -254 12 -315 l7 -113 -221 0 c-187 0 -223 -2 -236 -16 -14 -14
-16 -113 -16 -938 0 -704 3 -925 12 -934 9 -9 72 -12 220 -12 l208 0 0 -544 0
-544 -27 -7 c-76 -18 -153 -114 -153 -189 0 -88 65 -180 141 -202 l34 -10 3
-211 2 -211 -87 -7 c-323 -23 -601 -82 -857 -181 -228 -89 -535 -262 -718
-406 -543 -426 -919 -1035 -1053 -1703 -20 -99 -55 -356 -55 -402 0 -10 -63
-13 -280 -13 l-280 0 0 -877 0 -876 -107 6 c-58 4 -263 7 -455 7 l-348 0 0
1604 c0 1479 -1 1605 -17 1617 -13 11 -137 15 -674 19 -361 3 -659 7 -661 10
-3 3 -10 20 -18 38 -17 45 -82 98 -135 111 -50 12 -94 6 -148 -21 -38 -19 -97
-89 -97 -115 0 -12 -103 -13 -713 -7 -567 6 -724 4 -767 -6 -246 -58 -409
-294 -372 -537 22 -142 104 -266 223 -339 32 -20 59 -38 59 -39 0 -2 -24 -17
-53 -33 -29 -17 -77 -56 -107 -89 -135 -147 -165 -350 -78 -532 37 -78 140
-186 206 -215 l44 -20 -48 -24 c-27 -14 -76 -52 -110 -86 -186 -187 -189 -469
-8 -665 29 -32 78 -71 108 -87 l54 -28 -60 -35 c-167 -99 -262 -303 -229 -489
34 -191 173 -339 362 -388 57 -15 115 -16 514 -10 248 3 567 9 711 12 l261 7
7 -27 c10 -41 72 -103 122 -122 l45 -17 -3 -60 -3 -60 -40 -14 c-50 -17 -92
-57 -116 -108 -51 -109 18 -252 134 -280 22 -6 27 -13 27 -40 0 -29 -4 -33
-41 -44 -23 -7 -57 -29 -80 -53 l-40 -41 -712 11 c-487 7 -729 8 -767 1 -138
-26 -278 -134 -338 -260 -107 -226 -33 -481 180 -619 l57 -37 -67 -45 c-207
-137 -277 -395 -166 -616 38 -76 117 -161 186 -200 27 -15 48 -29 48 -33 0 -3
-19 -14 -42 -26 -132 -65 -229 -217 -244 -382 -7 -82 14 -181 58 -263 37 -69
122 -156 184 -189 24 -13 44 -26 44 -29 0 -3 -20 -16 -45 -29 -170 -90 -272
-304 -236 -496 33 -177 153 -315 328 -377 56 -19 77 -20 623 -19 311 0 644 4
740 7 l175 6 33 -32 c19 -17 49 -38 67 -46 74 -31 188 -7 232 49 l20 25 677 8
c565 6 680 9 692 21 12 12 14 221 14 1439 l0 1424 298 0 c163 0 368 3 455 7
l157 6 0 -750 0 -751 -27 -7 c-77 -18 -140 -95 -149 -182 -10 -88 65 -193 149
-210 l27 -5 0 -1581 0 -1580 373 7 c204 3 908 9 1562 12 l1190 7 28 -41 c25
-35 78 -71 130 -86 16 -5 17 -61 17 -991 l0 -985 -335 0 -335 0 0 -115 0 -115
740 0 740 0 0 115 0 115 -365 0 -365 0 0 990 0 989 35 17 c74 35 124 131 110
212 -9 56 -50 115 -102 147 l-43 28 0 97 0 97 134 6 c393 19 742 108 1101 281
794 383 1361 1099 1539 1945 51 239 56 323 56 914 l0 548 300 -3 300 -3 0 786
0 785 43 31 c115 80 113 255 -3 336 l-40 28 0 708 0 707 43 31 c114 80 115
235 3 329 l-46 38 2 2011 3 2010 683 3 682 2 0 -460 0 -460 105 0 105 0 0 905
0 905 -105 0 -105 0 0 -405 0 -405 -682 2 -683 3 0 630 0 630 225 3 c164 2
226 6 232 15 4 6 8 429 8 939 0 907 0 928 -19 938 -12 6 -106 10 -235 10
l-216 0 0 194 0 195 53 28 c39 21 59 40 82 80 l30 52 1516 1 1517 0 26 -54
c17 -35 41 -63 68 -82 37 -26 50 -29 119 -29 71 0 80 2 116 31 63 51 84 97 81
175 -3 50 -9 75 -27 101 -46 67 -129 105 -201 93 -61 -10 -127 -58 -152 -110
l-22 -45 -1518 0 -1519 0 -18 43 c-21 48 -73 101 -114 116 -41 16 -127 13
-162 -5z m3591 -122 c54 -43 58 -100 10 -148 -40 -40 -75 -44 -123 -14 -34 20
-44 50 -18 50 19 0 21 76 3 84 -9 3 -6 11 11 25 29 26 88 27 117 3z m-3684
-159 c18 -37 38 -56 81 -82 l57 -34 0 -193 0 -194 -199 0 c-168 0 -202 -2
-215 -16 -14 -14 -16 -113 -16 -938 0 -755 2 -926 13 -935 9 -7 86 -12 213
-13 l199 -3 0 -630 0 -630 -1581 -3 -1581 -2 -12 40 c-14 49 -60 103 -101 120
l-30 12 0 549 0 549 223 2 222 3 3 935 c2 870 1 936 -15 948 -12 8 -71 12
-209 12 l-192 0 -6 58 c-3 31 -8 155 -12 275 l-6 217 1570 0 1569 0 25 -47z
m-2804 -1455 l-3 -863 -402 -3 -403 -2 0 865 0 865 405 0 405 0 -2 -862z
m3410 0 l-3 -863 -402 -3 -403 -2 0 865 0 865 405 0 405 0 -2 -862z m-470
-4309 l2 -2007 -45 -11 c-61 -15 -120 -70 -142 -132 l-18 -49 -155 2 -155 3
-6 535 c-6 563 -8 592 -60 840 -161 763 -652 1454 -1315 1852 -407 245 -821
372 -1311 404 l-103 6 0 214 0 213 28 15 c30 16 69 56 95 99 l18 27 1582 -2
1582 -3 3 -2006z m-3398 751 l0 -530 -415 0 -415 0 0 -105 0 -105 903 2 902 3
3 103 3 102 -446 0 -445 0 0 531 0 532 133 -6 c774 -36 1535 -461 2003 -1122
251 -354 404 -737 480 -1205 23 -143 34 -1153 12 -1146 -7 2 -304 7 -660 10
l-648 6 0 -44 0 -44 660 -7 660 -8 0 -848 0 -849 -202 5 c-112 3 -409 7 -660
10 l-458 5 0 -44 0 -43 392 -6 c215 -4 512 -7 660 -7 l268 0 0 -820 0 -820
-487 5 c-269 3 -566 7 -660 10 l-173 5 0 -44 0 -43 242 -6 c133 -4 392 -7 577
-7 185 0 373 -3 419 -7 l83 -6 -4 -581 c-3 -487 -6 -598 -21 -686 -77 -476
-264 -897 -562 -1270 -88 -109 -285 -306 -394 -394 -130 -104 -337 -238 -478
-309 -352 -179 -687 -267 -1115 -293 l-107 -6 2 757 3 757 39 13 c143 49 182
251 68 347 -68 57 -178 63 -250 15 -45 -29 -92 -113 -92 -161 0 -81 47 -158
115 -190 l35 -17 -2 -756 -3 -757 -70 3 c-103 3 -285 28 -410 57 -380 85 -728
248 -1048 491 -131 100 -390 359 -490 490 -312 411 -498 879 -552 1391 -8 75
-15 156 -15 179 l0 43 465 -7 465 -6 0 40 0 40 -112 6 c-62 4 -221 7 -353 7
-132 0 -291 3 -352 7 l-113 6 0 829 0 828 450 0 c437 0 451 1 470 20 24 24 25
34 4 54 -14 14 -70 16 -470 16 l-454 0 0 860 0 860 454 0 c400 0 456 2 470 16
20 19 20 24 0 52 l-15 22 -455 0 -454 0 0 835 0 835 478 0 c263 0 481 2 483 4
3 3 3 23 1 45 l-4 41 -474 0 -474 0 0 48 c0 68 35 296 64 416 77 318 201 604
381 876 114 172 197 273 350 426 243 244 534 441 837 568 289 121 641 202 891
205 l87 1 0 -530z m-6207 -597 c194 -6 217 -8 217 -23 0 -46 104 -140 155
-140 13 0 15 -65 15 -590 l0 -590 -410 0 -410 0 0 -105 0 -105 472 0 472 0
-69 -70 -69 -70 -403 0 -403 0 0 -105 0 -105 295 0 c162 0 295 -3 295 -8 0 -4
-103 -111 -230 -237 l-230 -230 -75 75 -75 75 -37 -38 -38 -37 188 -187 187
-188 37 38 38 37 -75 75 -74 75 264 267 c146 148 270 271 275 275 6 4 25 8 43
8 l32 0 0 -678 0 -679 -38 -11 c-47 -14 -106 -70 -123 -116 l-12 -33 -131 -7
c-72 -3 -394 -9 -716 -12 -657 -8 -647 -8 -750 63 -186 130 -224 385 -84 568
58 77 191 145 283 145 32 0 44 5 57 25 13 21 15 31 6 50 -12 25 -24 30 -105
39 -116 14 -226 96 -284 214 -36 72 -38 81 -38 172 0 91 2 100 38 172 61 125
168 200 304 217 46 5 70 13 79 26 34 46 5 76 -79 86 -298 36 -448 387 -269
625 68 89 187 154 284 154 39 0 78 27 78 53 0 35 -29 54 -90 60 -130 11 -255
101 -312 224 -100 213 12 468 237 539 45 14 890 19 1278 7z m1579 -13 l298 0
0 -1604 c0 -1445 2 -1606 16 -1620 14 -14 73 -16 500 -16 l484 0 0 -248 0
-248 -44 -12 c-58 -15 -109 -61 -133 -117 l-18 -45 -1042 0 c-664 0 -1043 4
-1043 10 0 16 -61 80 -91 96 -28 14 -29 18 -29 84 0 66 1 70 29 84 139 73 146
281 11 358 l-40 23 0 683 0 682 450 0 451 0 -3 103 -3 102 -423 5 -423 5 68
67 68 68 355 2 355 3 3 103 3 102 -251 0 -252 0 256 262 256 262 -32 33 c-18
18 -35 33 -38 33 -4 0 -139 -133 -300 -295 l-294 -295 -123 0 -123 0 0 595 c0
486 2 595 13 595 25 0 95 70 111 111 l17 42 331 -6 c182 -4 466 -7 630 -7z
m1858 -2325 l0 -835 -235 0 -235 0 0 830 0 829 63 4 c34 2 140 4 235 5 l172 2
0 -835z m5845 -105 l140 0 19 -34 c22 -42 67 -75 120 -91 l41 -12 3 -695 2
-696 -45 -11 c-55 -14 -119 -69 -137 -117 l-12 -34 -163 0 -163 0 0 843 c0
464 3 847 7 851 4 4 17 5 28 2 11 -3 83 -6 160 -6z m-5952 -817 l107 -6 0
-857 0 -857 -157 -6 c-87 -4 -193 -7 -235 -7 l-78 0 0 424 c0 414 1 425 20
431 32 10 87 83 100 132 8 35 8 58 0 94 -12 50 -67 123 -100 134 -19 6 -20 16
-20 266 l0 259 128 0 c71 0 177 -3 235 -7z m-623 -793 c24 -47 88 -97 136
-106 l34 -6 0 -414 0 -414 -484 0 c-427 0 -486 -2 -500 -16 -14 -14 -16 -158
-16 -1438 l0 -1423 -332 -6 c-182 -4 -466 -7 -630 -7 l-298 0 0 30 c0 64 -51
144 -112 176 l-28 15 0 679 0 680 448 2 447 3 3 103 3 102 -428 0 -427 0 74
75 74 75 353 0 353 0 0 105 0 105 -252 0 -253 0 260 260 260 260 -38 37 -37
38 -297 -298 -297 -297 -123 0 -123 0 0 530 0 529 29 15 c139 73 146 281 11
358 -36 21 -40 27 -40 64 0 36 3 42 35 57 41 20 92 87 101 133 l6 34 1034 0
1034 0 20 -40z m6728 -219 c25 -54 82 -99 138 -108 l34 -6 0 -733 c0 -403 -4
-735 -8 -738 -4 -2 -121 -2 -260 1 l-252 6 0 814 0 813 163 0 162 -1 23 -48z
m-9545 -188 l317 -6 0 -26 c1 -67 67 -152 136 -176 l39 -13 3 -526 2 -526
-410 0 -410 0 0 -105 0 -105 477 0 477 0 -74 -75 -74 -75 -403 0 -403 0 0
-105 0 -105 294 -2 294 -3 -230 -234 -230 -234 -74 74 -74 74 -37 -38 -38 -37
188 -187 187 -188 37 38 38 37 -73 73 c-39 40 -72 77 -72 82 0 6 120 130 268
278 255 254 269 267 305 267 l37 0 -2 -676 -3 -676 -39 -13 c-74 -26 -135
-109 -136 -186 l0 -36 -697 -6 c-416 -3 -718 -2 -748 4 -116 21 -231 114 -283
226 -22 50 -26 72 -27 158 0 94 2 105 33 167 60 122 174 205 307 223 75 10 82
14 89 41 11 44 -6 58 -88 71 -139 22 -250 102 -309 222 -29 61 -32 74 -32 166
0 93 2 105 32 165 38 78 109 152 178 185 44 22 76 30 191 51 25 4 39 46 25 72
-7 13 -31 22 -85 30 -217 34 -359 207 -343 419 14 186 163 341 345 360 52 5
66 10 79 30 12 18 13 29 5 47 -9 19 -22 25 -81 34 -169 25 -291 129 -336 286
-59 206 73 432 282 486 37 9 481 7 1146 -7z m3547 -1443 l0 -830 -163 0 -164
0 -18 40 c-20 43 -70 94 -104 105 -21 6 -21 7 -21 761 l0 754 235 0 235 0 0
-830z m-82 -920 l82 0 0 -59 c0 -154 40 -415 95 -629 98 -374 297 -766 543
-1072 102 -127 302 -326 432 -430 394 -315 894 -530 1380 -594 63 -8 154 -18
203 -21 l87 -7 0 -94 0 -94 -53 -24 c-62 -27 -103 -72 -119 -131 l-11 -42
-891 -7 c-490 -3 -1171 -9 -1513 -12 l-623 -7 0 1536 0 1536 28 15 c42 22 90
75 103 114 l11 35 82 -7 c44 -3 118 -6 164 -6z"/>
<path d="M9690 11265 l0 -45 350 0 350 0 0 45 0 45 -350 0 -350 0 0 -45z"/>
<path d="M11090 11265 l0 -45 350 0 350 0 0 45 0 45 -350 0 -350 0 0 -45z"/>
<path d="M12490 11265 l0 -45 221 0 220 0 -3 43 -3 42 -217 3 -218 2 0 -45z"/>
<path d="M9842 10378 l3 -43 218 -3 217 -2 0 45 0 45 -221 0 -220 0 3 -42z"/>
<path d="M10980 10375 l0 -45 350 0 350 0 0 45 0 45 -350 0 -350 0 0 -45z"/>
<path d="M9610 9485 l0 -45 215 0 215 0 0 45 0 45 -215 0 -215 0 0 -45z"/>
<path d="M10747 9523 c-4 -3 -7 -24 -7 -45 l0 -38 350 0 350 0 0 45 0 45 -343
0 c-189 0 -347 -3 -350 -7z"/>
<path d="M12147 9523 c-4 -3 -7 -24 -7 -45 l0 -38 350 0 350 0 0 45 0 45 -343
0 c-189 0 -347 -3 -350 -7z"/>
<path d="M9840 8595 l0 -45 220 0 220 0 0 45 0 45 -220 0 -220 0 0 -45z"/>
<path d="M10980 8595 l0 -45 350 0 350 0 0 45 0 45 -350 0 -350 0 0 -45z"/>
<path d="M9647 7743 c-4 -3 -7 -24 -7 -45 l0 -38 220 0 220 0 0 45 0 45 -213
0 c-118 0 -217 -3 -220 -7z"/>
<path d="M10787 7743 c-4 -3 -7 -24 -7 -45 l0 -38 350 0 350 0 0 45 0 45 -343
0 c-189 0 -347 -3 -350 -7z"/>
<path d="M12187 7743 c-4 -3 -7 -24 -7 -45 l0 -38 350 0 350 0 0 45 0 45 -343
0 c-189 0 -347 -3 -350 -7z"/>
<path d="M9840 6815 l0 -45 220 0 220 0 0 45 0 45 -220 0 -220 0 0 -45z"/>
<path d="M10980 6815 l0 -45 350 0 350 0 0 45 0 45 -350 0 -350 0 0 -45z"/>
<path d="M9640 5920 l0 -40 220 0 220 0 0 40 0 40 -220 0 -220 0 0 -40z"/>
<path d="M10780 5920 l0 -40 350 0 350 0 0 40 0 40 -350 0 -350 0 0 -40z"/>
<path d="M12180 5920 l0 -40 350 0 350 0 0 40 0 40 -350 0 -350 0 0 -40z"/>
<path d="M17152 17503 l3 -328 27 -51 c52 -99 147 -160 267 -173 238 -24 402
85 431 285 5 38 10 187 10 332 l0 262 -84 0 -85 0 -3 -302 c-3 -333 -4 -338
-68 -391 -41 -35 -126 -52 -191 -38 -65 14 -96 35 -120 82 -18 35 -19 61 -19
344 l0 305 -86 0 -85 0 3 -327z"/>
<path d="M18002 17573 l3 -68 158 -5 157 -5 -170 -210 -170 -209 0 -63 0 -63
288 2 287 3 3 67 3 68 -187 2 -187 3 177 217 176 217 0 55 0 56 -270 0 -271 0
3 -67z"/>
<path d="M16330 14555 l0 -905 105 0 105 0 0 460 0 460 635 0 635 0 19 -37
c24 -49 45 -67 105 -94 58 -25 117 -21 177 13 114 64 134 237 37 324 -46 42
-87 56 -153 52 -91 -6 -162 -61 -184 -144 l-7 -29 -632 -3 -632 -2 0 405 0
405 -105 0 -105 0 0 -905z m1746 141 c38 -38 43 -70 19 -116 -19 -37 -43 -50
-90 -50 -97 0 -133 138 -47 184 45 25 80 20 118 -18z"/>
<path d="M17170 13893 c0 -5 42 -156 94 -338 l94 -330 85 -3 84 -3 53 212 c30
119 56 205 60 198 4 -8 29 -103 56 -212 l49 -198 85 3 85 3 70 247 c38 137 73
248 76 248 3 0 47 -105 98 -234 89 -223 93 -235 81 -270 -15 -47 -71 -106
-101 -107 -13 -1 -41 -1 -62 1 l-38 2 3 -69 3 -68 70 -3 c87 -4 142 16 189 68
51 57 65 87 222 490 l143 365 -81 3 c-45 2 -85 -1 -89 -5 -4 -4 -39 -99 -78
-211 -39 -111 -73 -208 -77 -214 -4 -6 -29 47 -56 118 -27 71 -65 171 -84 222
l-36 92 -113 0 -112 0 -54 -210 c-30 -115 -57 -210 -60 -210 -3 0 -30 95 -59
210 l-53 211 -81 -3 -81 -3 -55 -212 c-30 -117 -56 -210 -58 -209 -1 2 -23 82
-48 177 -25 96 -49 191 -55 212 l-10 37 -79 0 c-44 0 -80 -3 -80 -7z"/>
<path d="M1471 11978 c-10 -28 3 -58 27 -59 9 0 256 0 547 1 570 1 633 -3 725
-47 150 -73 242 -255 210 -416 -34 -178 -167 -300 -352 -326 -61 -8 -78 -20
-78 -57 0 -32 22 -44 97 -55 173 -24 303 -152 334 -327 37 -211 -127 -426
-340 -448 -68 -8 -91 -22 -91 -59 0 -33 33 -51 101 -58 115 -11 240 -100 293
-209 78 -159 46 -339 -81 -459 -65 -62 -140 -97 -228 -108 -68 -8 -85 -19 -85
-57 0 -33 30 -51 91 -56 118 -9 250 -102 304 -212 120 -245 -37 -532 -308
-564 -70 -9 -87 -20 -87 -57 0 -37 17 -48 87 -57 224 -26 384 -238 344 -454
-32 -170 -172 -303 -341 -323 -65 -8 -90 -23 -90 -55 0 -38 16 -49 85 -57 176
-22 316 -155 347 -330 36 -207 -126 -427 -331 -446 -68 -7 -101 -25 -101 -58
0 -37 23 -51 91 -59 164 -17 304 -148 339 -319 29 -144 -38 -305 -163 -391
-102 -70 -85 -69 -732 -66 -564 2 -581 1 -605 -18 -22 -17 -23 -23 -12 -46
l12 -26 593 0 c645 0 637 -1 751 57 77 39 160 129 203 220 34 70 38 88 41 175
4 78 0 110 -16 165 -37 119 -113 215 -217 274 l-55 31 57 34 c80 47 150 125
192 214 31 66 36 86 39 172 4 78 0 110 -17 166 -37 121 -123 228 -233 286
l-37 20 52 29 c80 46 153 126 195 214 33 70 37 88 40 175 4 78 0 110 -17 166
-37 121 -135 241 -238 290 l-33 16 43 24 c112 64 191 162 228 285 17 55 20 87
17 165 -3 88 -7 105 -42 176 -44 91 -113 167 -193 213 l-52 29 37 20 c110 58
196 165 233 286 17 56 21 88 17 166 -3 86 -8 106 -39 172 -42 89 -112 167
-192 214 l-59 35 50 25 c100 51 187 159 224 279 16 55 20 87 16 165 -3 87 -7
105 -41 175 -42 90 -125 181 -201 219 l-49 25 54 30 c107 60 184 157 221 276
16 55 20 87 16 165 -3 87 -7 105 -41 175 -43 91 -126 181 -203 220 -114 58
-106 57 -751 57 l-594 0 -8 -22z"/>
<path d="M1627 9226 c-155 -34 -236 -167 -224 -368 7 -110 17 -151 55 -206 59
-88 152 -127 283 -120 105 6 181 44 227 112 18 27 31 56 30 65 -2 9 -28 22
-63 33 -76 23 -72 23 -90 -12 -8 -16 -29 -36 -45 -45 -38 -20 -123 -19 -161 1
-32 16 -68 81 -69 122 l0 22 226 0 227 0 -7 81 c-4 44 -14 102 -22 129 -43
146 -197 224 -367 186z m138 -140 c35 -15 75 -67 75 -98 0 -16 -13 -18 -136
-18 l-135 0 6 23 c11 37 40 71 76 89 41 22 69 22 114 4z"/>
<path d="M510 9220 c0 -9 159 -578 181 -647 l11 -33 83 0 83 0 54 218 54 217
55 -218 54 -218 85 3 85 3 92 325 c51 179 93 333 93 343 0 16 -8 18 -77 15
l-78 -3 -55 -212 c-30 -117 -57 -213 -60 -213 -3 0 -30 96 -60 213 l-55 212
-77 3 -77 3 -14 -48 c-7 -26 -33 -126 -58 -221 -29 -115 -46 -167 -51 -155 -4
10 -26 92 -48 183 -23 91 -45 182 -51 203 l-10 37 -79 0 c-45 0 -80 -4 -80
-10z"/>
</g>
</svg>
