<?xml version="1.0" encoding="utf-8"?>
<!-- Generator: Adobe Illustrator 23.1.0, SVG Export Plug-In . SVG Version: 6.00 Build 0)  -->
<svg version="1.1" id="Layer_1" xmlns="http://www.w3.org/2000/svg" xmlns:xlink="http://www.w3.org/1999/xlink" x="0px" y="0px"
	 viewBox="0 0 729 722" style="enable-background:new 0 0 729 722;" xml:space="preserve">
<g fill="#3cf800">
	<g>
		<path d="M589.8,560.5c-2,0.3-3.9,0.8-6,1.5c-4.3,1.4-8.8,3.6-13.2,6.1c-1.6,0.9-3.3,1.9-4.9,2.9c2.7-4.1,3.9-8.1,5.2-12.3
			c0.6-1.3,4-14.1,3.9-14.2c-5.4,4.3-10.2,8.1-14.9,13.3c-3,3.2-5.1,6.3-7,9.5c-1.5,2.6-2.9,5.3-4.6,8.1c-1.1,2-2.3,3.9-3.9,5.8
			c-1.6,1.8-3.7,3.5-6.1,4.4c-0.3,0.1-0.6,0.2-0.8,0.4c-0.2,0.2-0.2,0.4-0.2,0.6c0,3.5,7.2,5,10.8,4.3c9.9-1.7,17.6-4.8,25.9-12.6
			c7.3-6.9,12.1-11.5,20-17.3C594.9,560.4,590.2,560.4,589.8,560.5z"/>
		<path d="M623.1,516.4c-1.9,0.7-3.7,1.6-5.6,2.7c-4,2.3-8,5.5-11.8,8.8c-1.4,1.2-2.9,2.5-4.3,3.8c1.9-4.7,2.4-8.9,2.9-13.5
			c0.3-1.4,1.4-15.2,1.3-15.3c-4.5,5.5-8.5,10.4-12.2,16.5c-2.3,3.8-3.9,7.3-5.1,10.8c-1.1,2.9-2,5.8-3,9c-0.7,2.2-1.5,4.3-2.8,6.4
			c-1.3,2.1-3.1,4.1-5.2,5.4c-0.3,0.2-0.6,0.3-0.7,0.6c-0.1,0.2-0.1,0.4-0.1,0.6c0.6,3.5,7.9,3.7,11.4,2.5c9.5-3.4,16.5-8,23.3-17.3
			c5.9-8.3,9.8-13.9,16.5-21.6C628.1,515.2,623.5,516.3,623.1,516.4z"/>
		<path d="M647.9,463.2c-1.7,1.2-3.3,2.6-5,4.3c-3.4,3.4-6.7,7.7-9.9,12c-1.2,1.6-2.3,3.3-3.5,5c1-5.3,0.7-9.9,0.3-14.8
			c0.1-1.5-1.5-16.4-1.6-16.5c-3.3,7-6.4,13.1-8.8,20.4c-1.6,4.6-2.4,8.5-3,12.5c-0.5,3.2-0.8,6.5-1.3,10c-0.3,2.4-0.7,4.8-1.6,7.2
			c-0.9,2.4-2.2,4.9-4.1,6.6c-0.2,0.2-0.5,0.5-0.6,0.7c-0.1,0.3-0.1,0.5,0,0.7c1.2,3.4,8.4,2.2,11.6,0.1c8.7-5.5,14.7-11.7,19.6-23
			c4.2-10.1,7-16.9,12.1-26.7C652.5,460.8,648.1,463,647.9,463.2z"/>
		<path d="M662,397.4c-1.4,1.9-2.7,3.9-4,6.2c-2.7,4.9-5.1,10.5-7.3,16.2c-0.8,2.1-1.6,4.3-2.4,6.5c-0.1-6.1-1.2-11-2.6-16.4
			c-0.2-1.6-4.7-17.9-4.9-18c-1.9,8.9-3.6,16.6-4.6,25.3c-0.6,5.5-0.7,10-0.5,14.5c0.1,3.6,0.4,7.2,0.6,11.1
			c0.1,2.6,0.2,5.3-0.1,8.1c-0.4,2.8-1.2,5.8-2.7,8.1c-0.2,0.3-0.4,0.6-0.5,1c0,0.3,0,0.5,0.1,0.7c1.9,3.3,8.7,0.1,11.4-2.9
			c7.4-8.2,12.1-16.4,14.7-30.2c2.2-12.2,3.5-20.6,6.5-33.1C666,393.2,662.2,397,662,397.4z"/>
	</g>
	<g>
		<path d="M142.8,561.7c2,0.4,3.9,0.8,6,1.6c4.3,1.5,8.7,3.8,13.1,6.3c1.6,0.9,3.2,1.9,4.9,2.9c-2.6-4.2-3.8-8.1-5-12.4
			c-0.5-1.3-3.8-14.2-3.7-14.3c5.3,4.4,10.1,8.3,14.7,13.6c2.9,3.3,5,6.4,6.8,9.6c1.5,2.6,2.9,5.3,4.4,8.2c1.1,2,2.2,4,3.8,5.8
			c1.6,1.8,3.7,3.6,6,4.5c0.3,0.1,0.6,0.2,0.8,0.5c0.2,0.2,0.2,0.4,0.2,0.6c-0.1,3.5-7.2,4.9-10.8,4.2c-9.9-1.8-17.5-5.1-25.7-13
			c-7.2-7-11.9-11.6-19.8-17.6C137.7,561.5,142.5,561.7,142.8,561.7z"/>
		<path d="M110.3,517.1c1.9,0.8,3.7,1.7,5.6,2.8c3.9,2.4,7.9,5.6,11.7,8.9c1.4,1.3,2.8,2.6,4.2,3.9c-1.8-4.7-2.3-8.9-2.7-13.5
			c-0.3-1.4-1.1-15.2-1-15.3c4.4,5.6,8.3,10.5,11.9,16.7c2.3,3.9,3.7,7.4,5,10.9c1,2.9,1.9,5.9,2.9,9c0.7,2.2,1.5,4.4,2.7,6.5
			c1.2,2.1,3,4.2,5.1,5.5c0.3,0.2,0.6,0.3,0.7,0.6c0.1,0.2,0.1,0.4,0.1,0.6c-0.7,3.5-8,3.6-11.4,2.3c-9.4-3.6-16.3-8.2-23-17.7
			c-5.8-8.4-9.6-14.1-16.1-21.8C105.3,515.9,109.9,517,110.3,517.1z"/>
		<path d="M86.4,463.6c1.7,1.3,3.3,2.7,4.9,4.3c3.4,3.5,6.6,7.8,9.7,12.2c1.1,1.6,2.3,3.3,3.4,5.1c-0.9-5.3-0.6-9.9-0.1-14.8
			c0-1.5,1.8-16.4,1.9-16.5c3.2,7.1,6.1,13.2,8.5,20.6c1.5,4.6,2.3,8.6,2.8,12.5c0.5,3.2,0.7,6.5,1.2,10c0.3,2.4,0.6,4.8,1.5,7.2
			c0.8,2.4,2.2,4.9,4,6.7c0.2,0.2,0.5,0.5,0.6,0.8c0.1,0.3,0.1,0.5,0,0.7c-1.3,3.4-8.5,2-11.6-0.1c-8.6-5.6-14.5-11.9-19.2-23.3
			c-4.1-10.1-6.7-17-11.6-26.9C81.8,461,86.1,463.4,86.4,463.6z"/>
		<path d="M73.4,397.5c1.4,1.9,2.7,4,3.9,6.3c2.6,4.9,4.9,10.6,7,16.3c0.8,2.1,1.6,4.3,2.3,6.5c0.2-6.1,1.4-11,2.9-16.3
			c0.3-1.6,5-17.8,5.1-17.9c1.7,9,3.3,16.6,4.2,25.4c0.5,5.5,0.5,10,0.3,14.5c-0.2,3.6-0.6,7.2-0.8,11.1c-0.2,2.6-0.3,5.3,0,8.1
			c0.3,2.8,1.2,5.8,2.6,8.2c0.2,0.3,0.4,0.6,0.4,1c0,0.3,0,0.5-0.1,0.7c-1.9,3.2-8.7-0.1-11.3-3.1c-7.3-8.3-11.8-16.6-14.2-30.4
			c-2-12.3-3.2-20.7-6-33.2C69.4,393.3,73.1,397.2,73.4,397.5z"/>
	</g>
	<path d="M265.7,27c2.5-1.4,4.9-3.2,7.6-4c5.2-1.4,10.7-2.3,16-3.3c1.9-0.4,4.4,0.1,5.8-1c5.1-4.1,10.9-4.6,16.9-3.5
		c3.4,0.6,6.1-0.5,9.3-1.4c5.3-1.5,11.2-0.9,16.8-1.1c1.7-0.1,3.8,0.7,4.9-0.1c6.4-4.4,12.9-3,19.6-1c1.5,0.5,3.7,0.9,4.9,0.2
		c6.6-3.9,12.8-1.9,19.2,0.4c1.6,0.6,3.6,1.4,4.9,0.8c7.2-3.4,13.6-1.1,20.1,2c1.3,0.6,3.1,1.2,4.3,0.7c7-2.8,13-0.1,19,3
		c1.5,0.7,3.4,1.9,4.7,1.4c7.6-2.5,13.6,1,19.6,4.8c1.2,0.8,3,1.6,4.2,1.3c7.5-1.6,13.3,1.7,18.8,6c1.2,0.9,2.8,2.1,4,1.9
		c7.4-1.5,12.7,2.4,18.1,6.5c1.9,1.4,4.5,2.4,6.8,2.6c6.5,0.4,11,4.1,15.3,8.2c1.3,1.2,3.1,2.9,4.6,2.9c7.4-0.2,11.9,4.2,16.4,9
		c1.2,1.3,2.8,3,4.4,3.1c7.4,0.6,11.8,5.3,16.2,10.6c1.4,1.7,3.6,3.2,5.7,3.7c6.6,1.5,10.2,6.4,13.7,11.4c0.9,1.3,2.2,3.2,3.5,3.4
		c7.4,1.3,11,6.8,14.6,12.5c1.2,1.8,3.1,3.6,5.1,4.4c6.1,2.4,8.9,7.5,11.8,12.8c1.1,2.1,3.1,4.1,5.2,5.1c5.8,2.9,8.3,8.2,10.7,13.7
		c0.7,1.6,1.6,3.9,3,4.4c6.7,2.9,9.1,8.7,11.4,14.9c0.8,2.2,2.5,4.5,4.4,5.8c5.5,3.8,7.3,9.5,8.8,15.5c0.4,1.6,1,3.6,2.2,4.3
		c5.8,3.5,7.6,9.1,9,15.3c0.6,2.8,2.2,5.7,4.2,7.8c4.6,4.6,5.4,10.4,6.3,16.3c0.2,1.6,0.5,3.8,1.6,4.7c6,4.9,6.6,11.5,6.9,18.5
		c0.1,1.6,0.4,3.7,1.4,4.7c5.1,4.9,5.6,11,5.3,17.4c-0.1,2-0.1,4.6,1,5.8c5,5.6,5.1,12,4.3,18.7c-0.2,1.6-0.5,3.8,0.4,4.9
		c4.9,6.2,4.2,13,2.9,20c-0.3,1.4-0.4,3.4,0.4,4.4c4.4,6.1,3.2,12.6,1.6,19.2c-0.4,1.6-1,3.7-0.3,4.9c4,6.8,2.5,13.4,0.2,20.2
		c-0.5,1.3-0.8,3.2-0.3,4.3c3.3,6.5,1.7,12.5-0.8,18.7c-0.7,1.7-1.7,3.9-1.1,5.4c2.9,7.3,0.6,13.7-2.6,20.1
		c-0.7,1.3-1.3,3.1-0.9,4.3c2.6,7.1-0.4,13-3.6,18.9c-0.8,1.4-1.9,3.3-1.6,4.7c2,7.7-1.4,13.6-5.5,19.4c-0.8,1.2-1.8,2.9-1.5,4.2
		c1.7,7.4-2,12.8-6.2,18.1c-1,1.3-2.5,3-2.3,4.4c1.1,7.9-3.1,13.3-8,18.5c-1,1.1-2.2,2.6-2.1,3.9c0.4,7.5-3.8,12.4-8.6,17.2
		c-1.3,1.3-2.9,3-2.9,4.5c-0.2,6.6-3.8,11.2-8.5,15c-2.9,2.3-3.9,5.1-5.5,8.3c-2.3,4.8-6.7,8.5-10.1,12.8c-1.4,1.8-3.2,3.5-3.8,5.6
		c-1.8,6.5-6.6,10-11.9,13.3c-1.4,0.9-3.2,2-3.5,3.3c-1.7,7.6-7.3,11.1-13.4,14.4c-1.4,0.8-3.2,1.9-3.6,3.2
		c-2.2,7.2-8,10.2-14.1,13.1c-1.5,0.7-3.6,1.5-4.1,2.8c-2.8,7.5-9,10.3-15.8,12.5c-1.4,0.5-3.1,1.4-3.6,2.5
		c-3.1,6.8-9.3,9-15.7,11.1c-2.1,0.7-4.3,2.2-5.5,4c-3.9,5.5-9.8,7-15.8,8.4c-1.6,0.4-3.7,0.8-4.5,1.9c-4.1,6.6-10.7,7.9-17.6,8.8
		c-1.5,0.2-3.4,0.5-4.1,1.5c-4.7,6.5-11.5,7.4-18.6,7.8c-1.5,0.1-3.4,0.3-4.2,1.3c-4.9,5.8-11.3,6.3-18.1,6.3
		c-1.8,0-4.2,0.1-5.2,1.2c-5.2,5.1-11.5,5.2-18.1,5c-2.4-0.1-5.1,0.6-7,1.9c-4.9,3.1-10.2,3.6-15.6,2.5c-3.4-0.7-6.2-0.5-9.3,1.6
		c-5.2,3.4-11.1,2-16.8,0.9c-1.6-0.3-3.8-0.7-4.9,0c-6.3,4.2-12.7,2.8-19.2,1c-1.7-0.5-4-1-5.4-0.3c-6,3.3-11.8,1.8-17.8,0.1
		c-2.8-0.8-6-0.9-8.8-0.3c-6.1,1.6-11.3-0.5-16.7-2.7c-1.5-0.6-3.5-1.6-4.7-1.1c-7.4,2.9-13.6,0.1-19.9-3.3
		c-1.3-0.7-3.1-1.5-4.3-1.1c-7.2,2.4-12.9-0.8-18.7-4.2c-1.5-0.9-3.6-2-5.1-1.7c-7.3,1.4-12.9-1.8-18.4-5.9c-1.3-1-3.1-2.3-4.4-2.1
		c-7.5,1.5-12.6-2.6-18-6.6c-1.7-1.3-4.2-2.4-6.3-2.4c-6.8-0.2-11.3-4.1-15.8-8.3c-1.2-1.1-2.8-2.8-4.1-2.7
		c-8,0.3-12.8-4.6-17.6-9.9c-1-1.1-2.4-2.3-3.7-2.4c-7.4-0.5-11.9-5.2-16.1-10.6c-1-1.3-2.4-3.1-3.7-3.2
		c-7.8-0.7-11.8-6.1-15.8-11.8c-0.9-1.3-2.2-3.1-3.6-3.4c-7.4-1.4-11.1-6.8-14.5-12.6c-0.8-1.4-1.9-3.4-3.2-3.7
		c-7.6-1.8-10.8-7.7-13.9-13.9c-0.7-1.5-1.8-3.4-3.1-3.8c-7.2-2.3-9.9-8.3-12.6-14.5c-0.7-1.5-1.4-3.6-2.6-4.1
		c-7.2-2.9-9.7-9.2-11.8-15.8c-0.5-1.5-1.3-3.5-2.5-4.2c-6.7-3.4-8.8-9.6-10.4-16.1c-0.4-1.7-1.2-3.9-2.5-4.8
		c-5.7-3.7-7.5-9.2-8.8-15.4c-0.6-2.8-2.3-5.6-4.3-7.7c-4.4-4.5-5.1-10.1-6.1-15.8c-0.4-2.2-1.4-4.6-2.9-6.2
		c-4.7-4.9-5.2-10.8-5.5-17c-0.1-1.8-0.4-4-1.6-5.1c-4.8-4.6-5.5-10.4-5.1-16.4c0.3-3.3,0-5.8-2.4-8.6c-4.3-4.9-3.7-11-3.1-17
		c0.2-1.6,0.4-3.8-0.4-4.9c-4.8-6-4.2-12.7-3-19.5c0.3-1.6,0.4-3.7-0.4-4.9c-4.3-6.2-3.2-12.6-1.6-19.2c0.4-1.6,1-3.7,0.3-4.9
		c-4.1-6.6-2.6-13.1-0.4-19.7c0.5-1.5,1.1-3.6,0.5-4.8c-3.4-6.7-1.6-12.9,1-19.2c0.7-1.7,1.4-3.9,0.9-5.3
		c-2.7-6.7-0.4-12.6,2.1-18.7c0.9-2.2,1.2-4.9,0.8-7.3c-1.1-6.2,1.2-11.3,4-16.4c0.9-1.7,2.2-4,1.8-5.6c-1.7-7.3,1.5-12.9,5.2-18.5
		c0.9-1.4,2.1-3.2,1.9-4.5c-1.6-7.4,2-12.8,6.2-18.1c1-1.3,2.6-3,2.4-4.3c-1.2-7.9,3.1-13.3,7.9-18.6c1-1.1,2.1-2.6,2-3.9
		c-0.3-7.5,4-12.4,8.8-17.2c1.3-1.3,2.9-3,2.9-4.5c0.3-7.3,4.8-11.7,9.6-16.1c1.7-1.6,3.2-4,3.7-6.3c1.5-6.4,5.9-10.1,10.8-13.7
		c1.3-1,3.2-2.2,3.4-3.6c1.2-7.8,6.6-12,12.8-15.6c1.2-0.7,2.8-1.9,3.1-3.1c1.7-7.6,7.3-11.1,13.5-14.3c1.4-0.7,3.2-1.9,3.6-3.3
		c2.2-7.2,8-10.2,14.1-13.1c1.5-0.7,3.5-1.5,4-2.8c2.7-7.2,8.8-10,15.4-12.4c1.5-0.6,3.5-1.4,4.1-2.7c3.1-6.6,9-8.8,15.2-10.9
		c2.2-0.7,4.6-2.3,6-4.1c4-5.5,9.8-6.9,15.8-8.3c1.6-0.4,3.6-0.9,4.4-2.1c4.1-6.3,10.4-7.7,17.2-8.6c1.6-0.2,3.8-0.5,4.6-1.6
		c4.7-6.4,11.5-7.3,18.7-7.7c1.4-0.1,3.4-0.4,4.2-1.4C252.5,26.6,258.7,26.1,265.7,27z M279.1,53.6c-9.2,2.7-20.2,3.1-27.2,8.5
		c-8.3,6.4-20.1,3.7-26.3,12.9c-10.1,1.6-16.7,10.2-25.8,13.1c-9.9,3.2-14.4,14.4-25.4,15c-3.1,10.6-15.4,10.9-21.3,19.4
		c-5.2,7.7-13.4,14.2-20.7,19.9c-8.1,6.4-10,17.7-19.9,21.7c-2.9,9.5-12.3,14.8-15.6,23.9c-3.5,9.3-13.5,15-14.2,25.8
		c-8.3,6.6-7.8,17.6-12.9,25.9c-5,8.2-9.4,17.8-10.1,27.1c-0.8,10-9.2,17.8-6.4,28.2c-5,8.9-2,19.4-5.4,28.4
		c-3.6,9.6,2.3,20.2-3.9,29.2c6.8,8.9-0.6,18.9,2.2,28.8c2.6,9,3.4,19.5,3.1,29.1c-0.3,10.2,8.1,18.4,4.6,28.7
		c7.3,8,5.1,19.3,10,28.5c4.6,8.6,8.7,18.3,11.1,27.7c2.7,10.3,13.7,16.3,12.6,27.8c10.4,4.5,10.1,16.8,17.6,24
		c7,6.8,13.5,15.3,18.8,23.8c5.4,8.8,16.9,12,19.5,22.7c11.4,1.4,13.2,16,24.4,17.8c6.1,8.4,16.6,11.3,23.9,18
		c7.7,7,19,7.9,25.6,16.4c11-1.1,16.8,11.8,27.9,10.4c8.1,7.3,19.1,6.9,28.5,10.7c9.1,3.7,19.1,7.9,28.6,7.5
		c10.5-0.4,19.6,7.7,30.1,3.2c9.5,5.3,19.9,1.1,29.8,2.5c9.8,1.4,20.5,1.4,29.9-1.3c9.9-2.8,20.7,2.4,29.6-4.7
		c10.8,3,19.4-5.2,29.9-5.8c9-0.5,18.9-4,26.4-9.1c8.3-5.6,19.8-3.4,26.1-12.3c10.2-1,16.3-10.2,25.3-12.9
		c9.8-2.8,14.1-14.2,24.9-14.7c3.1-10.4,15.4-10.5,20.9-19c5-7.8,15.6-11,19.8-20.2c10.1-3.6,11.9-14.9,19.5-21.3
		c7-5.9,14.2-13.9,16.6-22.3c2.7-9.8,14.1-14,13.4-24.9c6.5-7.6,7.9-18,13.2-25.7c5.8-8.3,2.9-19.5,11-26.2c-1.1-10,6.5-18.1,6.3-28
		c-0.2-9.6,7.3-18.1,4.2-28.1c5.9-8.8,0.6-18.9,3.5-28.1c2.9-9.4-2.9-19.4,1.6-28.8c-7-8.3-0.8-18.5-4.1-28.1
		c-3.1-8.7-4.9-19.1-5.1-28.4c-0.3-10.1-8.8-17.5-6.6-27.6c-5.8-7.9-5.1-18.7-10.9-26.3c-6-7.9-4-19.7-13.3-25.8
		c-0.9-10.3-10.6-15.7-13.7-24.7c-3.2-9.4-14.2-13.8-15.5-24.3c-10.9-2.4-11.5-14.9-20.2-20.6c-7.6-5-15.1-12.5-20.7-19.9
		c-6.3-8.2-17.9-9-21.9-18.9c-9.7-2.3-15.1-11.9-24.5-14.6c-9.3-2.7-14.7-13.1-25.4-12.8c-6.9-8-18.1-6.6-26.2-12.2
		c-8.1-5.5-19.3-3.3-26.9-10.2c-10.2,4-18.1-8.1-28.4-4.2c-9.2-3.7-19.6-1.8-28.4-4.6c-9.9-3.2-19.8,3.3-28.9-2.6
		c-9,4.8-18.9-0.9-27.9,2.7c-9.2,3.7-19.9-1.9-28.5,4.8C297.1,45.2,289,54.5,279.1,53.6z M646.5,560.9c-16.2-5.3-33.9,0.3-35.8,11.4
		c0.3,0.1,0.6,0.4,1,0.4c6.3,0,12.5,0.1,18.8,0.1C637.5,572.7,643.8,568,646.5,560.9z M416.5,681c6.3,5.2,12.1,10.8,18.8,15
		c5.2,3.3,11.4,2.8,17.7-0.8c-5.7-4.8-10.8-9.2-16-13.5C432,677.5,423.4,677.1,416.5,681z M230.7,42.7c6.8,4.2,13,9.3,20,12.1
		c5.5,2.2,12.1,1.7,17.9-3.1c-6.2-3.9-11.9-7.6-17.7-11.1C244.9,36.8,237.2,37.6,230.7,42.7z M246.7,59.3c-0.5-0.6-0.6-0.9-0.9-1.1
		c-5.7-3-11.3-6.1-17-9.1c-6.1-3.2-14.3-1.7-19.5,3.3C225.9,65,238.3,67.4,246.7,59.3z M119.4,604.8c1.6-8,3.1-15.2,4.3-22.4
		c0.8-5-4.5-13.5-10.3-16.1c-1.2,7.7-3,15.2-3.4,22.8C109.7,595.6,113.3,600.6,119.4,604.8z M672.3,518.7c-7.4,1.1-13.9,2.1-20.3,3
		c-7.3,1-13,6.4-15.1,15c8.5-1.5,16.8-2.2,24.7-4.6C667,530.5,670.3,525.5,672.3,518.7z M566.8,108.8c0-8.4,0.3-15.5-0.1-22.6
		c-0.4-5.9-7-12.6-12.6-13.5c0,7-0.6,14,0.2,20.9C555,100.5,559.8,105.1,566.8,108.8z M47,225.3c8.3-2,16.4-3.1,23.9-6
		c5.5-2.1,9-7.3,9.8-13.5c-0.4-0.3-0.6-0.5-0.7-0.5c-6.1,1.3-12.2,2.6-18.3,3.8C53.8,210.8,48.7,216.1,47,225.3z M707.2,404.2
		c-7,3.7-13.5,7-19.8,10.7c-5.3,3.1-8.4,11.7-6.4,17.5c5.9-3.1,11.7-6.2,17.5-9.4C704.7,419.7,708.2,412.5,707.2,404.2z
		 M682.8,497.1c-8,1.6-15,2.7-21.9,4.3c-6,1.4-11.9,9.4-11.7,15.6c5.6-1.2,11.2-2.7,16.9-3.6C675.1,512,679.8,506.3,682.8,497.1z
		 M225.8,68.9c-0.4-0.8-0.5-1.2-0.7-1.3c-5.8-2.7-11.7-5.4-17.6-8c-6.6-2.9-14.2-1.1-19.8,4.9c7.5,3.3,14.5,7.4,22.1,9.4
		C215.4,75.4,221.4,73.3,225.8,68.9z M129.3,582.6c-5.1,22.1-2.6,34.5,8,38c0.6-6,0.7-11.9,1.8-17.7
		C140.8,593.9,136.1,588.3,129.3,582.6z M592,101.3c-0.8,7.5-1.8,14.3-2.3,21.3c-0.5,6.6,4.7,14.1,10.7,16.1
		c0.5-3.5,0.9-6.9,1.3-10.4c0.4-3.5,0.9-6.9,1.1-10.4C603.1,111.2,598.8,104.4,592,101.3z M52.3,446.8
		c-14.2,15.5-17.9,28.5-10.3,36.8c4.1-6.1,8.4-12.1,12.3-18.3C57.3,460.4,56.2,451.6,52.3,446.8z M628.9,174.8
		c2-7.7,3.7-14.2,5.3-20.7c1.9-7.9-2-13.5-8-19.8c-1.9,7.4-3.4,13.7-5.1,20C618.8,162.5,622.6,168.3,628.9,174.8z M40.3,357.1
		c-5.2,4.4-10.5,8.6-15.5,13.1c-5.5,4.8-7,12.2-4,19.7c5.8-4.9,11.7-9.5,17.1-14.6C42.5,370.9,43.4,362.5,40.3,357.1z M70.6,227.1
		c-0.3-0.7-0.7-1.3-1-2c-8.1,2.9-16.5,5-24.1,8.8c-4.3,2.1-6.7,7.2-7.2,13.7c8.2-2.5,15.9-4,22.9-7.1
		C66.5,238.2,69.5,233,70.6,227.1z M687.4,364.1c0.5,0.3,1,0.7,1.5,1c5-4.2,10.1-8.4,15-12.7c6-5.2,7.6-11.9,4.7-20.2
		c-5.1,4.2-9.9,8.4-14.9,12.4C687.2,349.8,686.6,356.7,687.4,364.1z M489.1,38.2c2.2,8.7,3.4,16.4,6.3,23.5
		c2.4,5.9,7.9,9.1,15.1,10.6c-1.9-7.8-3.3-14.8-5.4-21.5C502.9,43.7,497.2,40.5,489.1,38.2z M357.1,706.4
		c-11.5-20.4-20.8-27.7-30.1-22.9c3.6,5.4,7.1,10.7,10.7,16C342.1,706,348.6,708.3,357.1,706.4z M129.8,107.7
		c7.5,1.6,14.4,3.5,21.4,4.5c7.2,1,13.9-2.8,16.9-9.1c-6.3-1.3-12.6-2.7-18.8-4C141.9,97.4,134.8,100.4,129.8,107.7z M559.8,619.4
		c9.4,1.5,17.5,3.5,25.7,3.9c5.6,0.3,10.4-3,14.2-8.9c-8.3-1.5-15.9-3.4-23.6-4.2C569.9,609.6,564.8,613,559.8,619.4z M18.8,366.4
		c6.9-5.1,13.1-9.2,18.8-13.9c4.5-3.7,6.2-12.4,3.9-18.1c-4.9,3.5-9.5,7.2-14.4,10.4C19.3,349.7,17.9,356.9,18.8,366.4z
		 M609.6,117.9c-1.5,7.6-3,14.7-4.1,21.9c-0.8,5.3,4.4,13.4,9.9,15.8c1.3-6.2,2.5-12.3,3.7-18.4c0.1-0.7,0.2-1.4,0.3-2.1
		C619.9,128.6,615.9,121.2,609.6,117.9z M641.4,193.3c2.6-7.9,5.1-14.7,7.1-21.6c1.7-5.8-2.3-14.2-7.8-17
		c-2.3,7.3-5.4,14.5-6.7,21.9C633,182.7,635.7,188.4,641.4,193.3z M396.5,16.4c8.1,17.8,12.8,28.4,28.7,26.2
		c-4.4-7.2-8.1-14.6-13-20.9C408.6,17.2,402.7,15.9,396.5,16.4z M678.4,216.9c-12.6,12.8-16.1,28.5-8.3,36.5
		C682.7,240.6,686.2,224.9,678.4,216.9z M46.7,424c-5.1,7.1-10.6,13.4-14.5,20.5c-2.8,5-1.9,10.9,1.8,16.6
		c4.5-5.7,8.6-10.9,12.6-16.1C50.6,439.9,50.9,431,46.7,424z M61.8,528.3c3.7-7.6,7.1-14.1,10-20.8c2.5-5.7-0.1-14.4-5.1-17.9
		c-3.3,6.8-7.2,13.2-9.5,20.2C55,516,57.1,522.1,61.8,528.3z M275.7,26.8c6.5,5.4,12.1,10.4,18.1,14.9c4.6,3.4,13.8,2.9,18.3-0.9
		c-6-4.9-11.5-10.2-17.9-14.3C288.9,22.9,282.6,23.8,275.7,26.8z M239.8,683.6c-1.9-7.8-3.2-14.4-5-20.9
		c-1.7-6.3-8.7-11.5-16.2-12.1c2.1,7.9,3.5,15.8,6.4,23.1C227.3,679.3,232.7,682.3,239.8,683.6z M419.2,19.6
		c4.1,7.9,7.2,15.6,11.7,22.1c3.4,4.8,9.2,6.9,16.3,6.2c-3.7-7.4-6.5-14.5-10.6-20.9C433.1,21.5,427.1,19.4,419.2,19.6z
		 M262.5,691.2c-1.6-5.1-2.9-9.7-4.4-14.4c-0.6-2-1.3-4-2-5.9c-2.4-6.2-9.7-11-16.2-10.7c0,0.5-0.1,1,0,1.5
		c1.8,5.6,3.6,11.3,5.4,16.9C247.8,686.1,253.7,690.6,262.5,691.2z M303.6,678.8c4.5,7.6,7.9,14.6,12.4,20.6
		c3.9,5.2,10.1,6.6,18.1,6.5c-4.9-8.1-8.6-15.4-13.6-21.7C316.9,679.8,311,678.3,303.6,678.8z M300.8,20.8
		c5.4,5.9,10.1,11.7,15.6,16.8c4.2,3.9,13.2,3.8,17.7,0.8c-4.4-4.6-8.8-9.2-13.4-13.8C314.9,18.8,308,18.6,300.8,20.8z M99.9,548.2
		c-1.7,7-3.2,13.3-4.8,19.7c-2,8,1.7,13.5,7.8,19.7c2-7.6,3.7-14.3,5.3-20.9C109.9,560.2,106.6,552.6,99.9,548.2z M45.1,311.3
		c-7.3,4.6-13.6,8.3-19.6,12.4c-4.9,3.4-7.5,12.1-5.5,18.2c6.7-4.3,13.7-7.9,19.7-12.8C44.5,325.1,45.3,318.8,45.1,311.3z
		 M394.2,684c5.8,5.5,11,11,16.7,15.8c4.6,3.9,14.3,3.6,17,0.8c-4.8-5.1-9.3-10.4-14.3-15.2C409.1,681,400.9,680.5,394.2,684z
		 M348.7,684.6c5.2,6.6,9.7,13.1,15.1,18.6c4.5,4.6,10.7,4.6,18.1,3.3c-5.5-6.9-9.8-13.6-15.4-18.9
		C362.1,683.5,355.9,682.4,348.7,684.6z M88.1,568.2c2.5-7.7,5-14.7,7-21.9c1.5-5.6-2.3-13.6-7.2-16.3c-0.1,0.1-0.4,0.1-0.4,0.3
		c-2,5.9-4,11.8-6,17.8C79,555.4,81.2,562.3,88.1,568.2z M706.6,309c-0.6-0.4-1.3-0.8-1.9-1.2c-5.2,5.6-11,10.7-15.5,16.9
		c-3.6,4.9-4.4,11.1-1.4,18.2c6.1-6,12.2-10.9,17-17C708.5,321.1,708.7,314.9,706.6,309z M562.5,644.8c-8.4-2.9-15.6-6.1-23.1-7.7
		c-6-1.3-11.7,1.3-17,6.6c6.9,2.5,12.9,4.8,18.9,6.9C548.9,653.3,555.4,651,562.5,644.8z M541.7,657.8c-8.1-3.5-15.2-7.5-22.7-9.5
		c-5.6-1.4-11.5,0.8-16.7,5.9c8.2,3.5,15.3,7.4,23,9.4C530.7,665.1,536.4,663,541.7,657.8z M61.7,246c-8.2,3.3-16.4,5.7-23.6,9.8
		c-4.7,2.7-6.9,8.2-6.9,14.3c1.1-0.1,1.7,0,2.2-0.2c5.5-2,11.1-4,16.6-6.1C57.1,261.2,61.4,255,61.7,246z M695.3,261
		c-4.5,5.6-8.4,10.5-12.2,15.4c-4.7,6-5.2,13.8-0.7,21.7c5.1-6.8,10.5-12.9,14.5-19.8C699.7,273.3,698.9,267.2,695.3,261z
		 M482.1,663.3c7.3,3.8,13.8,8,20.8,10.6c6.1,2.3,12.1,0.1,17.5-4.1C501.7,657.1,490.9,655.1,482.1,663.3z M380.6,37.8
		c-5.4-6.8-9.9-13-14.9-18.6c-3.9-4.3-12-5.3-17.7-2.7c4.6,6,8.7,12.4,14,17.5C366.5,38.4,372.8,39.8,380.6,37.8z M49.4,290
		c-19.4,8.1-29.7,13.2-27.2,27.7c6.7-3.6,13.6-6.6,19.7-10.7C47.4,303.3,49.3,297.3,49.4,290z M357,37.1c-14.2-18-21-24.7-33.1-18.6
		c5,5.5,9.7,11.1,14.8,16.2C343,39,351.3,39.9,357,37.1z M468.7,53.8c-3.2-7.5-5.6-15.2-9.6-21.9c-3-5.1-8.7-7.6-15.3-7.3
		C449.6,46.3,457,55.2,468.7,53.8z M23.5,413.7c6-6,12.5-11.3,17.3-17.9c3.1-4.3,3.9-10.5-0.4-17.7c-5.5,6.1-10.5,11.5-15.3,17
		C21,399.8,20.3,407.7,23.5,413.7z M290.2,46.3C274.8,31,262,26.8,253.7,34.4c5.2,3.8,10.4,7.6,15.6,11.4
		C275.9,50.7,282.7,49.8,290.2,46.3z M660.3,539.9c-8.4,0.7-16.3,0.7-23.9,2.2c-6.2,1.2-10.2,6-12.9,13.2c8.9-0.9,16.9-0.9,24.6-2.6
		C654,551.5,658.1,546.8,660.3,539.9z M676.9,275.8c0.7-0.9,1.2-1.3,1.6-1.9c3.5-5.2,7.1-10.3,10.4-15.6c3.5-5.5,2.8-13.9-1.7-19.8
		c-3.8,5.6-7.5,11-11.2,16.4C672.2,260.8,672.4,269.3,676.9,275.8z M490.2,63.1c-2.8-8.6-4.5-16.2-7.8-23c-2.8-5.8-8.5-8.8-15.8-9.4
		c2.2,6.9,4.1,12.9,6,19C475,57.7,481.2,60.8,490.2,63.1z M50.6,505.6c13.3-15.3,16.5-30,8.2-36.8C47.2,486.2,42.5,493.3,50.6,505.6
		z M405.8,704.3c-5.4-6-10.2-11.7-15.5-16.9c-4.4-4.3-13.1-5-17.7-2.1C385.1,701.5,391.3,709.3,405.8,704.3z M371.4,15.3
		c4.8,7.1,8.7,13.3,13.1,19.1c3.7,4.8,12.1,6.6,17.8,4.2c-3.6-5.4-7.2-10.7-10.8-16C386.9,15.8,380.2,14.6,371.4,15.3z M702,284.4
		c-16.1,15.8-22.9,22.7-16,35.8c5.2-5.8,10.7-11.1,15.1-17.2C705,297.6,704.1,291.3,702,284.4z M260.5,668.5
		c3.1,7.4,5.3,14.6,8.9,21c3.2,5.6,9,8.3,15.9,8.3C279.6,675.9,272.6,667.3,260.5,668.5z M674.8,454.4c5.4-2.3,10.3-4.4,15.3-6.6
		c1.6-0.7,3.2-1.4,4.7-2.2c5.6-3,9.2-10.5,8.1-16.5C684.5,435.3,674.2,439.2,674.8,454.4z M147.2,91.8c8.4,2.2,15.4,4.7,22.7,5.9
		c6.7,1.1,12.4-1.7,17.5-7.5c-6.8-2-13-3.7-19-5.7C160.1,81.9,154,85.5,147.2,91.8z M582,630.5c-8.5-2.4-15.8-4.8-23.2-6.4
		c-5.9-1.3-13.5,3-16,8.2c5.8,1.7,11.7,3.2,17.4,5.2C568.7,640.4,574.9,636.7,582,630.5z M167.5,76.8c18.3,10.4,31.7,10.9,38.6,1.2
		c-7.6-2.5-14.8-5.6-22.3-7.2C177.8,69.5,172.2,71.8,167.5,76.8z M92.4,187.2c-0.2-0.6-0.4-1.2-0.6-1.8c-8.4,1.5-16.9,2.3-25,4.9
		c-4.9,1.6-8.3,6.3-9.7,12.9c6.7-1,12.7-2.2,18.7-2.7C84.8,199.9,89,194.2,92.4,187.2z M710.3,355.8c-6.8,4.9-13,9.1-18.8,13.8
		c-4.3,3.5-6.1,12.8-3.8,18.1c4.9-3.5,9.5-7.2,14.5-10.4C709.8,372.4,711.5,365.3,710.3,355.8z M25.3,293.5
		C45,289,56,279.2,54.2,267.8c-5.8,2.5-11.4,5.2-17.2,7.5C29,278.6,26.2,285,25.3,293.5z M135.1,132.7c-8.9-0.4-16.9-1.4-24.7-0.9
		c-6.1,0.4-10.4,4.7-14.2,11.1c9.1,0.4,17,1.3,24.9,0.8C127.1,143.3,131.6,139.3,135.1,132.7z M438.2,676.2c7.1,5,13,9.8,19.4,13.6
		c5.8,3.4,12,2.3,18.6-1.5c-5.7-4.2-10.9-7.9-16-11.7C453.4,671.5,446.6,672.3,438.2,676.2z M594.4,588.2
		c17.9,6.2,33.7,2.5,37.3-8.9c-6.2-0.4-12.2-0.5-18.2-1.2C604.9,577.1,599.5,581.4,594.4,588.2z M217.4,673.6
		c-1.2-7.5-1.6-14.7-3.5-21.5c-1.9-6.7-7.2-10.8-13.9-12.7c-0.4,0.8-0.7,1.1-0.7,1.4c1,6,2,12,3,18
		C203.5,666.3,208.9,671.8,217.4,673.6z M577.2,604.9c9.5,1,17.8,2.7,26,2.4c5.4-0.2,10.2-3.8,13.3-9.7c-6.4-1-12.1-1.7-17.7-2.7
		C590,593.2,583.6,596.8,577.2,604.9z M175.6,650.4c-0.4-8.3,0-16-1.3-23.5c-1-6.2-5.5-10.5-12-13.2c0,6.9,0,13.1,0,19.3
		C162.4,640.8,166.9,647.1,175.6,650.4z M662.4,233.1c3.5-7.4,7.3-14.4,10.2-21.8c1.9-5-1.4-13.3-5.7-16.3
		c-3.1,6.5-6.4,12.8-9.3,19.3C655.2,219.8,657.3,228.2,662.4,233.1z M74.4,548.4c2.8-6.9,5.4-13,7.8-19.3c2.5-6.7,0.4-14.2-5.3-19.2
		c-0.3,0.4-0.7,0.8-0.9,1.2c-2.3,5.5-4.5,10.9-6.7,16.4C66.3,534.6,67.8,541.8,74.4,548.4z M667.3,476.2c8.3-3.3,16.2-5.5,23.2-9.4
		c5-2.8,7.3-8.4,7.5-15.4c-7.9,3-15.4,5-22,8.5C670.6,462.8,667.4,468.2,667.3,476.2z M530.5,82.9c-1.6-8.3-2.5-16.1-4.8-23.4
		c-1.9-6.1-7.1-9.5-14.2-11.5c1.2,6.9,2.4,12.9,3.4,19C516.1,75,521.1,80.6,530.5,82.9z M652.4,213.1c3.2-8,6.4-15.1,8.8-22.4
		c1.7-5.4-2.1-13.7-6.8-16.2c-2.7,6.8-5.9,13.4-7.9,20.4C644.6,201.5,647.1,207.4,652.4,213.1z M584.2,123.2
		c0-9.3,0.8-18.1-0.3-26.7c-0.6-4.8-4.7-8.6-9.9-10.5C571.3,107.9,571.3,116.2,584.2,123.2z M659.4,496.8c7.9-2.5,15.9-4.2,23.1-7.6
		c5.1-2.4,7.9-7.7,8.3-14C669,478.4,658.5,485.4,659.4,496.8z M684.1,410.8c6.9-4.3,12.8-7.7,18.4-11.5c6-4,9.1-13,6.3-18.8
		c-6.2,3.9-12.7,7.4-18.5,11.8C685,396.6,683.8,403,684.1,410.8z M69.3,181.3c22.2,1.6,31.7-2,35.9-14.5c-8.7,0.9-17,1-25,2.8
		C74.9,170.9,71.2,175.4,69.3,181.3z M27.5,438.1c5.1-5.6,9.5-10.3,13.7-15.1c5.5-6.2,5.3-13.1,2.4-21.7
		c-5.9,6.9-11.9,12.6-16.2,19.4C24.3,425.4,25.1,431.6,27.5,438.1z M549.2,95.1c-0.9-8.3-1.4-15.6-2.4-22.8
		c-0.9-5.8-7.4-11.5-13.9-12.4c1,7.7,1.3,15.4,3,22.8C537.3,89,542.1,92.9,549.2,95.1z M179.8,626.6c1,8.7,1.5,16.4,2.8,23.9
		c1,5.7,7.2,10.8,13.4,11.5c-0.7-6.9-1.1-13.6-2.1-20.3C192.9,634.3,187.7,630.1,179.8,626.6z M281.9,674.2
		c3.7,7.4,6.8,14.4,10.5,21c2.8,5,10.7,7.7,16.9,6.3c-3.5-6.9-6.3-14.2-10.5-20.4C295.2,675.9,289.2,673.9,281.9,674.2z
		 M151.1,117.3c-8.2-1-15.7-2.3-23.2-2.8c-5.9-0.4-12.4,4.5-14.5,10.1c6.4,0.9,12.7,1.9,19,2.8C139.8,128.5,146.6,125,151.1,117.3z
		 M499.2,679.9c-7.4-4.6-13.4-9.3-20.1-12.2c-5.9-2.5-12.4-1.8-18.7,2.7c5.7,3.6,10.9,6.8,16,10.1
		C483.6,685.3,490.7,684.2,499.2,679.9z M119.1,149.8c-8.5,0-16.4-0.8-24.1,0.3c-5.7,0.8-9.9,5.1-12.8,11.2c9.1,0,17.5,0.8,25.6-0.3
		C112.8,160.2,117,156.2,119.1,149.8z M144,599.4c0,6.9,0.2,13.2-0.1,19.5c-0.3,7.3,4,14.2,11.2,16.9
		C159.2,615.4,155.9,602.9,144,599.4z"/>
	<g>
		<path d="M277,362.2c0.1,0.1,0.1,0.2,0.2,0.3l6.5-4L277,362.2z"/>
		<path d="M277.5,363.2c0.1,0.1,0.1,0.2,0.2,0.3l6.5-4.1L277.5,363.2z"/>
		<path d="M423.4,490.5L423.4,490.5c8.3-4.8,9.3-12.3,9.5-14l-12.7-15.4c-2.5,6-6.4,13.4-12.5,22.1
			C414.6,486.9,421.7,490.3,423.4,490.5z"/>
		<path d="M422.8,375.8c0.4-1.3,0.8-2.5,1.3-3.8c0.9-2.5,2-4.9,3.1-7.4l0.1-0.2l3-1c0.5-1.1,2.8-6.1,5.5-10.4l-0.4,0l-0.5-0.6
			c-0.6-0.8-0.7-0.8,1.6-12.7c0.6-3,1.3-6.6,1.4-7.9c-0.5-0.9-0.4-2,0.2-3l1.3-1.9c4-7.6,4.8-12.2,4.7-13.8
			c-0.1-0.1-0.1-0.2-0.1-0.4c-0.4-1.2-0.7-2.4-0.9-3.4l-7.2-11c0-0.1-0.1-0.1-0.1-0.2c0,0-0.4-0.7-1.3-1.5c-0.2-0.1-0.5-0.1-0.7-0.3
			c-0.9-0.5-1.8-1.1-2.7-1.7c-4.8-1.8-14.1-2.3-31.1,5.6c-1.1,0.5-12.1,5.4-13.4,6c-1.8,0.9-7.2,4.1-7.4,7.2c0,0.3-0.1,0.6-0.3,0.8
			c-1.1,1.6-3.7,4.1-9.5,3.9l0.2,27.2c2.4,0.6,5.8,2,8.7,4.8c-0.2-4.1,2.2-17.9,41.2-32.6c0.1,0.1,0.1,0.1,0.3,0.2
			c12.4-4.8,15.9,1.2,16.7,6.2c-0.4,12.2-3.2,30.8-16,40.7c-1.4,1.6-27.5,3.1-41.9-13.3c-2.1-0.8-6-2.3-8.9-3.3l0.1,19.3
			c0.1,0.1,0.1,0.2,0.1,0.3c0.1,0.2,1.8,4.7,2.1,8.7l12.9,8c0.1,0.1,0.3,0.2,0.5,0.3l0.2-0.1l0.6-0.4l0.5-0.4c0,0-0.4,0.6,0.3-0.3
			c0.8-0.9,0.8-0.9,0.8-0.9s0.1-0.2,0.4-0.3c0.3-0.1,0.8-0.3,0.8-0.3l0.5-0.6l-0.5,1c0,0-0.3,0.2-0.3,0.4c-0.1,0.3,0.2-0.3-0.1,0.3
			c-0.3,0.5-0.3,0.5-0.5,0.8c-0.2,0.3-0.5,0.4-0.6,0.7c-0.1,0.3-0.2,0.5-0.2,0.5l-0.3,0.8l-0.2,0.3c2.6,2.9,6.8,10.2,9.4,28.4
			l4.1,28.7l4.8,27.9l0,0c0.3,1.7-0.9,5.1-2.9,9.5c1.2-1.7,2.4-3.4,3.5-5.1l4.4-7.2c9.2-16.6,8.6-25.9,8.6-26.1
			c-0.1-0.8,0.2-1.6,0.7-2.2l-12.8-31.7l11.2-11.2l7,2.9c-0.4-2.2-0.7-4.4-1-6.5c-0.4-2.7-0.7-4.9-1-7c-0.3-2.7-0.6-4.9-0.8-7l0-0.1
			l0-0.1C422.1,378.2,422.4,376.9,422.8,375.8z M374.2,374.7c-1.1,0-2.1-0.9-2.1-2.1c0-1.1,0.9-2.1,2.1-2.1c1.1,0,2.1,0.9,2.1,2.1
			C376.2,373.8,375.3,374.7,374.2,374.7z M374.2,363.6c-1.1,0-2.1-0.9-2.1-2.1c0-1.1,0.9-2.1,2.1-2.1c1.1,0,2.1,0.9,2.1,2.1
			C376.2,362.6,375.3,363.6,374.2,363.6z"/>
		<path d="M398.2,454.2l-1.8-10.3c0,0,0,0,0-0.1l-1-7l0.1,7.3c0.1-0.2,0.2-0.3,0.2-0.3s-0.1,0.6-0.1,1.4l0,5.4
			c0.1,0.1,0.2,0.1,0.3,0.1c-0.1,0.1-0.2,0.1-0.3,0.2l0,1.8c0,0,0,0,0,0.1C396.6,453,397.5,453.5,398.2,454.2z"/>
		<path d="M277.2,362.7c0.1,0.1,0.1,0.2,0.2,0.3l6.5-4.1L277.2,362.7z"/>
		<path d="M276.7,361.7c0.1,0.1,0.1,0.2,0.2,0.3l6.6-4L276.7,361.7z"/>
		<path d="M275.3,359.2c0.1,0.1,0.1,0.2,0.2,0.3l6.6-3.8L275.3,359.2z"/>
		<path d="M275.8,360.2c0.1,0.1,0.1,0.2,0.2,0.3l6.6-3.9L275.8,360.2z"/>
		<path d="M275.6,359.7c0.1,0.1,0.1,0.2,0.2,0.3l6.6-3.9L275.6,359.7z"/>
		<path d="M276.4,361.2c0.1,0.1,0.1,0.2,0.2,0.3c0,0,0,0,0,0l6.6-4L276.4,361.2z"/>
		<path d="M276.1,360.7c0.1,0.1,0.1,0.2,0.2,0.3l6.6-3.9L276.1,360.7z"/>
		<path d="M448.9,389.8l-0.1-2l1-0.1c1.7,16.5,3.6,23.1,4.9,25.8c-0.2-0.9-0.1-1.2,0.1-1.4c0.1-0.2,0.3-0.3,0.6-0.3
			c0.6,0,1.2,0.7,2.6,2.2c0.5,0.5,1,1.1,1.5,1.6c0.4,0.4,1,0.6,1.8,0.6c3.5,0,10.4-7.5,10.4-7.5l0-0.1c5.6-9.6,5.3-20.7,5.3-20.8
			l0.8-0.1c-0.1-2.8-2.5-19.7-2.1-18.6c-0.5-4.8-1.1-8.3-1.5-10.7c0,1-0.1,1.5-0.1,1.5l-1,0.1c-2.1-6.8-4-7.9-4.9-7.9
			c-1.4,0-2.7,2.3-3.1,3.1l-1-0.2c0-1.5,0.3-2.8,0.5-3.8c-15.5,17.9-12.3,34.8-12.3,35l-1,0.2c-2.5-10.5-1.2-17.4-1.2-17.7
			c0.8-4.9,5.3-12.6,8.6-17.8c-9.5,11.4-11.1,21.2-11.2,21.8C447.5,376,448.2,383.2,448.9,389.8z M464.8,360.9
			c1.8,0,4.4,1.4,6.2,7.8c1.3,4.4,1.9,10.3,1.9,16.5c-0.1,10.7-2.6,22.7-7.7,23.9c-0.3,0.1-0.6,0.1-0.9,0.1h0
			c-1.8,0-4.3-1.4-6.2-7.8c-1.3-4.4-1.9-10.3-1.9-16.5C456.4,373,459.4,360.9,464.8,360.9z"/>
		<path d="M446.9,351.1c-0.7,1.1-1.4,2.3-2.2,3.7c-0.8,1.5-1.7,3.1-2.5,4.9c-0.3,0.7-0.6,1.4-0.9,2.1l-0.2,0.5l-0.2,0.4
			c-0.3,0.7-0.5,1.4-0.8,2.1c0.9-2,2-4.3,3.1-6.6C444.4,355.8,445.6,353.5,446.9,351.1z"/>
		<path d="M446.8,364.8c-3.1,5.9-3.4,9.3-3.4,9.6l0.5,5l-1,0.2l-1.5-3.8c-1.6,0.2-6.1,0.3-7.4,0.3c-0.7,0.8-1.5,2.2-1.5,2.2
			l-0.8,1.2l-0.2-1.4c-0.2-1.5-0.2-3.2-0.1-4.7c-0.5,1.8-0.7,3.1-0.7,3.1c-1.3,6.5,1.6,17.9,4.3,26.4c-0.2-1-0.4-1.6-0.4-1.6
			l-0.5-1.9l1.3,1.5c1.2,1.3,2.4,1.4,3.5,1.5c1.4,0.1,2.8,0.2,3.7,2.7c-2.2-9.4-3.2-16.8-3.4-18.5c-4.8-1-7.3-3.8-7.4-3.9l-1-1.2
			l1.5,0.3c4.4,0.9,9,1,11.4,1c0.6,0,1.1,0,1.4,0c-1.1-6.1-0.8-9.2-0.8-9.4C444.6,371.6,445.7,367.9,446.8,364.8z"/>
		<path d="M444.3,330.1l-0.8,1.1c-0.1,0.2-0.2,0.4-0.2,0.6c0,0.1-0.1,0.2-0.1,0.3c0,2-2.5,11.2-4.4,16.7c0.9-1.1,1.8-1.9,2.6-2.2
			c0.3-0.5,1.1-1.9,2.8-2.7c0,0,0-0.1,0-0.1c0.1-0.2,0.2-0.3,0.3-0.5c0.3-1.3,0.6-2.5,0.9-3.8c-0.1-0.1-0.2-0.2-0.2-0.3
			c0.3-1.7,0.6-3.3,1-4.9c0,0.4,0,0.7,0,1.1c0.6-3.9,0.9-7.5,0.9-11c-0.7,1.7-1.6,3.6-2.6,5.4C444.4,330,444.3,330,444.3,330.1z"/>
		<path d="M429.5,394.7l0.4,0.7c-2.3-9.1-1.9-15.8-1.7-17.5l-2-0.8l0.1-1l1.7-0.1c0.6-2.9,2.6-7.6,4.6-12
			c-4.4,7.6-6.8,12.4-7.2,13.2c0.9,10.4,2.6,19,2.6,19.1l-1,0.2c-0.2-0.7-0.3-1.5-0.5-2.2c1.2,7.2,2.4,13,2.6,13.8
			c1.7,2.7,4.3,4.1,5.8,4.7c-4.1-10.3-6.3-17.8-6.3-17.9L429.5,394.7z"/>
		<path d="M275,358.6c0.1,0.1,0.1,0.2,0.2,0.3l6.7-3.8L275,358.6z"/>
		<path d="M464.3,406.2c0.7,0,1.7-1.2,2.7-3.5c-0.6,0.9-1.3,1.4-2,1.4c0,0,0,0,0,0c-3.3,0-5-9.9-4.9-19.1c0.1-9.2,2-18.9,5.3-18.9
			c0.8,0,1.5,0.6,2.1,1.5c-1.1-2.8-2.2-3.6-2.7-3.6l0-0.5v0.5c0,0-0.1,0-0.1,0c-1.9,0.4-5.3,7.9-5.4,21c-0.1,5.9,0.5,11.4,1.7,15.6
			C462.3,405,463.7,406.2,464.3,406.2z"/>
		<path d="M393.2,421.6l-0.1-0.7c-0.1,0-0.1,0.1-0.2,0.1c0,0.3,0,0.5,0,0.8C393,421.7,393.1,421.7,393.2,421.6z"/>
		<path d="M392,413c0.1,0.5,0.1,1,0.2,1.4C392.1,414,392.1,413.5,392,413z"/>
		<path d="M444.1,360.3c-0.2,0.5-0.5,1-0.7,1.6l-0.2,0.6c-0.3,0.8-0.6,1.4-0.8,2.1c1-2.1,2.1-4.4,3.2-6.7c1.1-2.3,2.3-4.5,3.6-6.8
			c-1,1.5-2,3.2-3,5.1C445.5,357.3,444.8,358.7,444.1,360.3z"/>
		<path d="M441.8,352.3c-1.2,1.9-2.2,4-3.3,6.3c-0.5,1-0.9,2.1-1.4,3.2l0,0.1c-0.1,0.3-0.2,0.6-0.4,1c-0.3,0.8-0.6,1.5-0.8,2.3
			c1.1-2.5,2-4.6,2.9-6.4c0.9-2,1.9-4.1,2.9-6.1L441.8,352.3z"/>
		<path d="M393.1,420.7l-0.7-4.6c0,0,0,0,0,0c0,1.2,0.1,3.1,0.4,4.1c0.1-0.1,0.1-0.2,0.1-0.2s0,0.2,0,0.5
			C393,420.5,393,420.6,393.1,420.7z"/>
		<path d="M445.4,362c-0.1,0.2-0.2,0.4-0.3,0.6c-0.3,0.6-0.5,1.2-0.7,1.7c1.2-2.5,2.2-4.7,3.3-6.8c1.2-2.3,2.4-4.5,3.6-6.7
			c-1.3,2-2.5,4.1-3.8,6.6c-0.5,1-1,2.1-1.7,3.5C445.7,361.2,445.6,361.6,445.4,362z"/>
		<path d="M444.5,351.4c-0.4,0.7-0.8,1.3-1.3,2.1c-1,1.7-2,3.5-2.9,5.6c-0.4,0.9-0.8,1.8-1.1,2.6l-0.1,0.3l-0.3,0.7
			c-0.3,0.7-0.6,1.4-0.8,2.2c0.8-1.8,1.9-4.2,3-6.5C442.1,356,443.4,353.6,444.5,351.4z"/>
		<path d="M613.9,297.6c-18.3-66.8-56.5-118.7-115.6-154.5c-59.2-35.9-123.2-46.2-190.7-30.8c-67.7,15.4-121.1,52.6-158.7,110.6
			c-40.9,63.3-52,132.6-32.7,205.8c17.6,66.8,56.4,118.4,115.3,154.1c59,35.8,122.7,45.6,199.8,29c17.3-4.9,43-14.4,67-28.8
			c23.8-14.3,45-31.8,62.5-52.8c17.6-21.1,31.7-44.6,42.3-70.8c10.5-26,17-52.4,18.9-79.7C623.9,352.1,621.3,324.7,613.9,297.6z
			 M603.7,364.9c-2.8-10.1,2-13.8,14.6-22.1C621.2,352.5,616.8,356.1,603.7,364.9z M603.3,348.4c-4.2-8.6,1.3-14.4,12.7-23.3
			C621.3,332.8,613.6,340.8,603.3,348.4z M601.5,331.9c-4.2-7.8,0.8-18,11.8-24C617,317.7,613,321.4,601.5,331.9z M598.5,315.9
			c-4.4-9.3-1.1-14.2,9.9-25.4C613.8,298.9,609,305,598.5,315.9z M594.7,299.6c-5.1-8.9-1.7-14.5,8.2-25.8
			C609.1,281.4,605.2,286.7,594.7,299.6z M589.6,283.8c-7-11.2,1.7-18.4,6.1-27.4C602.2,264.9,599.7,270.2,589.6,283.8z
			 M583.5,268.2c-7.6-10.4,0.4-18.1,3.9-26.6C594.3,245.2,592.5,257.5,583.5,268.2z M565.8,373.1c1.9,4.9,3.3,10.1,4,15.9
			c-5.4-3.9-10.8-7.9-16.5-12.1c-5.4,4-10.9,8.1-16.3,12.1c-0.4-0.2-0.8-0.4-1.1-0.6c1.7-5.3,3.2-10.6,5.2-15.7
			c1.2-3,0.7-4.8-2.1-6.7c-4.6-3-8.9-6.4-14.6-10.6c8.4,0,15.2,0,22,0c2.3-6.9,4.4-13.5,6.5-20.1c0.4,0,0.7,0.1,1.1,0.1
			c1.7,5.4,3.5,10.8,5,16.3c0.7,2.6,2,3.7,4.9,3.6c5.5-0.2,11.1-0.1,17.2,1c-4.3,3.2-8.5,6.6-13.1,9.5
			C565,367.9,564.5,369.8,565.8,373.1z M545.7,484.2c-0.3,0.2-0.6,0.5-0.9,0.7c-4.4-3.3-8.9-6.4-13.1-9.9c-2.5-2.1-4.3-2.3-6.9-0.1
			c-4.2,3.5-8.8,6.7-14.1,9.4c2.1-6.6,4.1-13.2,6.3-20c-5.5-4.1-10.9-8.1-16.3-12.1c0.1-0.4,0.2-0.8,0.2-1.2
			c5.2,0,10.5-0.3,15.7,0.1c3.5,0.3,5.2-0.8,6.1-4.2c1.3-5.2,3.1-10.2,6-15.6c1.6,4.9,3.6,9.8,4.8,14.8c1,4.2,3,5.3,7.2,4.9
			c4.9-0.5,9.8-0.1,14.8-0.1c0.1,0.4,0.3,0.8,0.4,1.3c-5.4,4-10.8,8-16.4,12.1C541.6,471,543.6,477.6,545.7,484.2z M576.4,253.3
			c-8.8-9.9-1-18.3,2.1-27.2C586.7,231.2,583.4,241.6,576.4,253.3z M568.1,238.6c-9.4-9.3-1.7-18.1,0.2-27.1
			C577.3,216.5,574.6,226.1,568.1,238.6z M557.7,197.8c7.9,4.3,7.1,12.2,1.8,26.7C552.3,220.4,551.7,212,557.7,197.8z M545.1,184.4
			c9.6,4.2,8.1,15,3.6,27.3C538.6,203.3,544.4,193.8,545.1,184.4z M533.2,171.9c11,7.8,5.8,17.9,5.5,27.4
			C528.8,193.9,529.6,186.4,533.2,171.9z M519.5,161.7c7.8,2.4,9.9,10.3,6.7,25.7C517.3,183.2,517.2,175.8,519.5,161.7z M521.9,255
			c1.3-5.3,3.3-10.4,5.5-17.2c2.1,6.6,4,11.4,5.1,16.4c0.9,4.3,3,5.3,7.1,5c4.9-0.4,9.9-0.1,14.8-0.1c0.2,0.4,0.4,0.9,0.5,1.3
			c-4.3,3.1-8.4,6.4-12.8,9.2c-3.2,2-3.6,4.2-2.3,7.6c1.9,4.9,3.3,10.1,3.9,15.7c-5.4-4-10.9-8-16.4-12.1
			c-5.7,4.2-11.1,8.3-16.6,12.3c-0.3-0.2-0.7-0.3-1-0.5c1.3-3.9,2.5-7.9,3.8-11.8c2.7-8.3,2.7-8.3-4.5-13.5c-3.1-2.3-6.3-4.6-9-8.1
			c5.3,0,10.6-0.2,15.8,0.1C519.3,259.5,521,258.7,521.9,255z M505.1,151.2c9.4,3,9.7,10.8,8.3,24.9
			C505.4,173.7,503.1,166.8,505.1,151.2z M490.2,142.1c8,2,10,7,10.1,24.9C491.1,164.5,488.3,153.8,490.2,142.1z M472.1,539.2
			c2,4.9,3.3,10,4.9,15c-0.3,0.2-0.7,0.4-1,0.6c-5.4-4-10.9-8.1-16.4-12.2c-5.6,4.1-11,8.1-16.5,12.2c-0.3-0.2-0.7-0.4-1-0.6
			c1.7-5.3,3.2-10.8,5.2-16c1.1-3,0.5-4.6-2-6.3c-4.6-3.1-9-6.5-13.1-11c5.1,0,10.1-0.3,15.2,0.1c4.1,0.3,6.2-1.1,7.2-5.2
			c1.2-5,3-9.9,5.6-14.8c1.7,5.2,3.5,10.4,4.9,15.7c0.8,3.1,2.3,4.4,5.6,4.3c5.4-0.2,10.8-0.1,16.9,1.1c-4.2,3.1-8.3,6.3-12.7,9.1
			C471.6,533.3,470.6,535.4,472.1,539.2z M377.4,564c1.9,5.1,3.4,10.4,4.2,16.2c-4-3-8.2-5.7-11.9-9c-3.6-3.2-6.3-2.8-9.6,0.2
			c-3.6,3.2-7.7,5.8-12.6,8.2c1.7-5.1,3.1-10.3,5-15.3c1.3-3.3,0.9-5.5-2.3-7.6c-4.4-2.7-8.4-6-12.2-10.2c5.2,0,10.5-0.2,15.7,0.1
			c3.5,0.2,5.1-1,5.9-4.4c1.3-5.2,3.1-10.2,4.8-15.3c0.4,0,0.9,0,1.3,0c1.7,5.2,3.5,10.4,4.9,15.7c0.8,3.2,2.4,4.3,5.6,4.1
			c5.3-0.3,10.6-0.1,16.3,1.1c-4.3,3.1-8.4,6.4-12.9,9.3C376.7,558.8,376.3,560.9,377.4,564z M390.5,504.1c-0.3,0.3-0.7,0.6-1.1,0.8
			c-0.4,0.1-8.9,3.7-21.2,3.7c-0.1,0-0.2,0-0.3,0c-0.1,0-0.2,0-0.3,0c-12.2,0-20.8-3.5-21.2-3.7c-0.4-0.2-0.8-0.4-1.1-0.8l-9-10.4
			c-2.2-2.6-4.2-5.2-6-7.6c-6.4,3.5-15.6,8.1-18.2,8.1h0c-1,0-1.6-0.4-2-0.7c-10.8-6.5-11-16.9-11-17.3v-0.9l15-18.2
			c-2.3-6.7-2.7-11.3-2.7-13.8l-8.8-8.8c-0.5-0.5-0.8-1.1-0.8-1.8l-2-18.7l-4.3-6.7l-10.1-9.4c-0.6-0.6-0.9-1.3-0.9-2.1v-9
			c0-1.1,0.6-2,1.5-2.6l1.3-0.7c-1.3-0.4-2.7-0.9-4.2-1.6c-0.1,0-0.1-0.1-0.2-0.2c0-0.1-0.1-0.2,0-0.3c0.2-0.9,0.5-1.9,0.7-3
			c0-0.1,0-0.2,0.1-0.4c0-0.2,0.1-0.3,0.1-0.5l0-0.3c0-0.2,0.1-0.5,0.1-0.7c0-0.1,0-0.1,0.1-0.1c0.2-0.3,0.4-0.6,0.7-0.9
			c0,0,0.1-0.1,0.1-0.1c-0.6-1.3-1.4-2.8-2.4-4.5c0,0-0.1,0-0.1,0c0,0,0,0-0.1,0c-1.6-0.3-3.3-0.6-5.1-1c-0.1,0-0.2-0.1-0.2-0.2
			c-0.1-0.1-0.1-0.2-0.1-0.3c0.3-1.4,0.6-2.8,0.9-4.3l0.2-1c0-0.1,0.1-0.2,0.1-0.2c-0.1-0.2-0.2-0.4-0.3-0.5l0,0l-0.2-0.3l0,0
			c0-0.1-0.1-0.1-0.1-0.2l0,0l-0.2-0.3l0,0c0-0.1-0.1-0.1-0.1-0.2l0,0l-0.2-0.3l0,0c0-0.1-0.1-0.1-0.1-0.2l0,0l-0.2-0.3l0,0
			c0-0.1-0.1-0.1-0.1-0.2l0,0l0,0l-0.2-0.3l0,0c0-0.1-0.1-0.1-0.1-0.2l0,0l-0.2-0.3l0,0c0-0.1-0.1-0.1-0.1-0.2l0,0l-0.2-0.3l0,0
			c0-0.1-0.1-0.1-0.1-0.2l0,0l-0.2-0.3l0,0c0-0.1-0.1-0.1-0.1-0.2l0,0l-0.2-0.3l0,0c0-0.1-0.1-0.1-0.1-0.2l0,0l-0.2-0.3l0,0
			c0-0.1-0.1-0.1-0.1-0.2l0,0l-0.2-0.3l0,0c0-0.1-0.1-0.1-0.1-0.2l0,0l-0.2-0.3l0,0c-0.1-0.2-0.2-0.3-0.2-0.5l9-4.6l-9,4.6
			c0,0-0.1,0-0.2,0c0,0-0.1,0-0.1,0c-1.7-0.7-3.5-1.4-5.3-2.2c-0.1,0-0.1-0.1-0.2-0.2c0-0.1-0.1-0.2,0-0.3c0.6-1.9,1.1-3.7,1.7-5.4
			c0-0.1,0.1-0.1,0.2-0.2c-0.1-0.2-0.2-0.4-0.2-0.6l0,0L270,348l0,0c0-0.1-0.1-0.1-0.1-0.2l0,0l-0.1-0.3l0,0c0-0.1-0.1-0.1-0.1-0.2
			l0,0l-0.1-0.3l0,0c0-0.1-0.1-0.1-0.1-0.2l0,0l-0.1-0.3l0,0c0-0.1-0.1-0.1-0.1-0.2l7.1-3l-7.2,2.7c0,0.1,0.1,0.2,0.1,0.3l-0.1-0.3
			l0,0c0-0.1,0-0.1-0.1-0.2l0,0l-0.1-0.4l0,0c0-0.1,0-0.1-0.1-0.2l0,0l-0.1-0.4l0,0c0-0.1,0-0.1-0.1-0.2l0,0l-0.1-0.4l0,0
			c0-0.1,0-0.1-0.1-0.2l0,0l-0.1-0.4l0,0c0-0.1,0-0.1-0.1-0.2l0,0l-0.1-0.4l0,0c0-0.1,0-0.1-0.1-0.2l0,0l-0.1-0.4l0,0
			c0-0.1,0-0.1-0.1-0.2l0,0l-0.1-0.4l0,0c-0.1-0.2-0.1-0.3-0.2-0.5l9.6-3.3l-9.5,3.3c0,0-0.1,0-0.1,0c-0.1,0-0.1,0-0.2,0
			c-1.7-0.9-3.3-1.9-4.9-2.9c-0.1-0.1-0.1-0.1-0.2-0.2c0-0.1,0-0.2,0-0.3c0.9-2,1.7-3.7,2.4-5.3c0-0.1,0.1-0.1,0.2-0.2
			c-0.1-0.2-0.1-0.4-0.2-0.7l0,0l0,0l-0.1-0.4l0,0c0-0.1,0-0.1,0-0.2l0,0l-0.1-0.4l0,0c0-0.1,0-0.1,0-0.2l0,0l-0.1-0.4l0,0
			c0-0.1,0-0.1,0-0.2l0,0l-0.1-0.4l0,0c0-0.1,0-0.1,0-0.2l0,0l-0.1-0.4l0,0c0-0.1,0-0.1,0-0.2l0,0l-0.1-0.4l0,0c0-0.1,0-0.2,0-0.2
			l0,0l0-0.3l0-0.2l0,0c0-0.1,0-0.2,0-0.2l0,0l-0.1-0.4l0,0c0-0.1,0-0.2,0-0.2l0,0l0-0.3l0-0.2h0c0-0.1,0-0.2,0-0.2l0,0l-0.1-0.4
			l0-0.1l0,0c0-0.1,0-0.2,0-0.2l0,0l-0.1-0.4l0,0c0-0.1,0-0.2,0-0.2l0,0l-0.1-0.4l0,0c0-0.2-0.1-0.4-0.1-0.6l11.6-1.3l-11.6,1.2
			c0,0,0,0,0,0c-0.1,0-0.2,0-0.3-0.1c-1.7-1.8-3-3.4-4-5.1c0-0.1-0.1-0.1,0-0.2c0-0.1,0-0.2,0-0.2c1.3-1.9,2.7-3.7,4.2-5.3
			c0.1-0.1,0.2-0.1,0.3-0.1c0-0.3,0.1-0.6,0.1-0.9c0,0,0,0,0,0c0-0.1,0-0.2,0.1-0.3c0,0.1,0,0.2-0.1,0.3c2.5,0.3,5.1,0.6,7.6,1
			l-7.5-1.5c0-0.1,0-0.2,0.1-0.3c2.5,0.4,5.1,0.7,7.6,1.1l-7.5-1.6l-0.1,0.4c0-0.2,0.1-0.4,0.1-0.6c0-0.1,0.1-0.3,0.1-0.4l0,0.2
			c2.5,0.4,5.1,0.8,7.6,1.3c-2.5-0.6-5-1.2-7.4-1.9c0-0.1,0-0.2,0.1-0.3c2.5,0.5,5,1,7.5,1.5c-2.5-0.7-4.9-1.4-7.4-2.1
			c0,0.1-0.1,0.3-0.1,0.4l0.1-0.4c0,0,0,0,0,0c0-0.1,0.1-0.2,0.1-0.3c0,0,0,0,0,0l0.1-0.6c0-0.2,0.1-0.4,0.1-0.5
			c0-0.1,0.1-0.2,0.1-0.3l-0.1,0.3l-0.1,0.2l4.2,1.1l3.2,0.9c-2.4-0.8-4.8-1.7-7.2-2.6c0-0.1,0.1-0.2,0.1-0.3
			c2.5,0.7,4.9,1.5,7.4,2.2c-2.4-0.9-4.7-1.8-7.1-2.8c0,0.1-0.1,0.1-0.1,0.2c0,0,0,0,0,0c0,0.1-0.1,0.1-0.1,0.2c0-0.1,0-0.1,0.1-0.2
			c-17.7-17.7-11.9-35.9-9.2-41.8c0-0.1,0.1-0.2,0.1-0.2c0,0,0-0.1,0.1-0.1c7.8-14.7,17.8-23.3,29.7-25.6
			c19.4-3.8,36.6,10.3,37.3,10.9c0,0,0,0,0,0c0.8,0.1,1.5,0.1,2.3,0.3c0.4,0.1,0.8,0.3,1,0.7c0.3,0.6,3.5,5.3,6.3,9.3
			c0.5,0.5,0.8,0.9-0.3,3.5c5-2.5,10.2-3.7,15.5-3.7c10.2,0,17.7,4.6,20.2,6.1c0,0,0.1,0,0.1,0.1c0,0,0.1,0,0.1-0.1
			c2.4-1.3,9.6-5.4,19.5-5.5c13.2-15.6,25.4-23.3,34.3-20.3c5.4,1.9,9.3,6.7,11.9,14.6c11.8-3.5,20-2.7,25.1,2.3
			c6.4,6.4,6.3,17.8-0.4,35c-2.3,5.8-4.8,11.3-6.9,15.2c1.4,7.9,2.3,19.2-0.2,32.1c0.6-1,1.4-1.7,2.4-1.7c0.9,0,1.8,0.7,2.8,2
			c0.6-0.1,1.7-0.4,3-0.4c2.7,0,6.4,0.9,8.3,5.3c0.1,0,0.3,0,0.5,0c2.1,0,7.3,1.1,8.9,11.2c0,0,1.4,12.2,2.6,22
			c0,0.1-0.1,0.1-0.1,0.1c-0.5,32.2-9,36.5-9,36.5s-6.3,5.3-12.3,5.3c0,0,0,0,0,0c-1.2,0-2.5-0.1-3.8-0.4c-0.5,0.2-2.8,0.8-5.1,0.8
			c-3.2,0-5.4-1.1-6.3-3.3c-0.6,0.1-1.6,0.2-2.9,0.2c-2.7,0-6.3-0.4-8.6-2.5l0,0l-5.7-6.6l-0.7-4.5l-6.9-2.8l-8.6,8.6l11.7,28.9l7-7
			l1.8-16.4l1.9,0.7c0.8,0.3,1.6,0.6,2.5,0.8l1.4,0.3l-1.7,16.2c-0.1,0.7-0.4,1.3-0.8,1.8l-8.8,8.8c0,2.4-0.4,7.1-2.8,13.9l14.9,18
			v0.9c0,0.4-0.1,10.8-11,17.3c-0.4,0.3-1.1,0.7-2,0.7c-2.6,0-11.7-4.6-18.1-8c-1.8,2.4-3.8,4.9-5.9,7.5L390.5,504.1z M289,225.4
			c-5.8-4.3-10.4-7.4-14.6-10.9c-2.6-2.2-4.4-2-6.9,0.1c-4.2,3.5-8.7,6.5-14,9.1c2.1-6.6,4.2-13.1,6.3-19.8
			c-5.6-4.2-11-8.2-16.4-12.2c0.1-0.4,0.2-0.8,0.4-1.2c5.3,0,10.6-0.2,15.8,0.1c3.4,0.2,5.2-1,6-4.5c1.3-5.1,3.1-10,4.7-15
			c0.4,0,0.9,0,1.3,0c1.7,5.2,3.4,10.4,4.9,15.6c0.8,2.9,2.4,4,5.4,3.9c5.3-0.2,10.7-0.1,16.7,1.1c-5.3,3.9-10.7,7.9-16.4,12.2
			C284.3,210.3,286.4,217,289,225.4z M377.4,181.4c1.9,5.2,3.5,10.5,5.2,15.7c-0.3,0.3-0.6,0.5-0.9,0.8c-4.4-3.3-8.9-6.4-13.1-9.9
			c-2.6-2.1-4.4-2.1-7,0c-4.1,3.4-8.6,6.5-14,9.1c1.7-5.1,3.2-10.2,5-15.2c1.3-3.3,0.9-5.5-2.4-7.5c-4.4-2.7-8.4-6-12.4-10.3
			c5.4,0,10.9-0.2,16.3,0.1c3.3,0.2,4.8-1.1,5.6-4.2c1.4-5.3,3.2-10.4,6.1-15.6c1.7,5.4,3.5,10.7,5,16.1c0.8,2.7,2,3.7,4.9,3.6
			c5.5-0.2,11-0.1,17.1,1c-4.4,3.2-8.6,6.7-13.2,9.6C376.6,176.6,376.3,178.5,377.4,181.4z M473,201.4c-2.6,1.7-3.1,3.3-2,6.2
			c2,5.3,3.6,10.8,5.9,17.9c-6.8-5.1-12.3-9.1-18.1-13.4c-5.5,4.1-10.9,8-16.3,12c-0.3-0.2-0.7-0.5-1-0.7c1.6-5,2.9-10.2,4.8-15.1
			c1.5-3.6,0.5-5.5-2.6-7.5c-4.3-2.8-8.3-6.1-12.2-10.3c4.9,0,9.8-0.2,14.7,0.1c4.2,0.3,6.6-0.8,7.5-5.3c1-5,3-9.8,4.5-14.6
			c0.4,0,0.7,0,1.1-0.1c1.6,5.1,3.4,10.1,4.7,15.2c0.9,3.5,2.6,5,6.4,4.8c5.1-0.3,10.3-0.1,16.1,1.1
			C482,194.9,477.6,198.3,473,201.4z M486.3,156.9c-9.2,0.6-11.8-9.4-12.3-23.6C483.7,135.8,484.7,142,486.3,156.9z M471.5,150.1
			c-12.9-3-11.5-14.4-14.7-23.8C467.3,127.5,469.6,134.5,471.5,150.1z M456.4,142.6c-10.2-0.1-12.4-7.5-15.6-22.3
			C451.9,122,452.8,128,456.4,142.6z M441.4,136.1c-9.9,2.5-13.6-6.3-17.8-20.4C437.3,116.6,436.8,128.5,441.4,136.1z M424.9,132
			c-9.3,1.7-13.4-5.5-18.5-19.5C416.5,111.3,419.5,118,424.9,132z M408.9,128.8c-10.6,0.4-13.6-4.3-20.1-18.9
			C398.4,108.4,402.2,114.4,408.9,128.8z M392,126.1c-9,2.5-14.4-4.3-20.7-17C380.7,106.5,385.4,112.9,392,126.1z M375.2,124.8
			c-7,3.1-14.7-2.3-21.6-15.1C362.3,105.5,368.4,112.8,375.2,124.8z M359.2,124c-7.5,6.3-19.4-5-23.1-14.2
			C348.6,107,352.3,117.9,359.2,124z M342.9,125.3c-9.6,4.9-14.8-0.5-25.1-12.3C330.8,108.8,335.4,119.4,342.9,125.3z M325.7,127.9
			c-8.8,4.3-14.7,0.2-24.6-10.6C308.2,113,316.8,116.7,325.7,127.9z M309.3,130.9c-8.3,5.8-13.9,1.4-25.6-8.7
			C292.5,116.9,298.3,121.3,309.3,130.9z M293.6,135.8c-11.3,6.6-18.2-2.3-27.1-6.8C275.3,122.5,281,125.9,293.6,135.8z
			 M277.5,140.9c-6.3,6.9-14.4,3.6-26.3-5.1C256.6,130,266.4,132.7,277.5,140.9z M251.1,141.9c3.5,2,7.4,3.4,11.2,5
			c-4.6,7-10.7,6.4-27.6-2.8C240.1,140.5,245.1,138.6,251.1,141.9z M247.5,155.5c-6.5,7.3-13.6,5.1-27.1-1.7
			C227.2,146.5,233.9,148.6,247.5,155.5z M233.7,164.4c-9.1,9.6-18.3,2.5-27.5,0.7C211.1,156.6,219.8,158.2,233.7,164.4z
			 M214.8,468.4c2,5.1,3.4,10.5,5.1,15.7c-0.3,0.2-0.6,0.4-0.8,0.7c-5.4-4-10.8-7.9-16.6-12.1c-5.4,3.9-10.8,7.9-16.2,11.8
			c-0.4-0.2-0.7-0.4-1.1-0.7c1.6-5,2.9-10.2,4.8-15.1c1.3-3.3,0.8-5.2-2.2-7.1c-4.4-2.9-8.6-6.3-12.5-10.7c4.7,0,9.5-0.5,14.2,0.1
			c5.1,0.7,7-1.3,8-6c1-4.7,2.8-9.2,5.4-14c1.6,4.9,3.4,9.8,4.7,14.8c1.1,4.2,3,5.8,7.5,5.3c4.7-0.6,9.6-0.1,14.9,1.1
			c-4.3,3.2-8.5,6.6-13,9.6C214.2,463.6,213.6,465.3,214.8,468.4z M162.1,365.5c-4.4-2.6-8.3-6-12.1-10.2c5.3,0,10.6-0.2,15.9,0.1
			c3.4,0.2,5.2-0.7,6-4.3c1.3-5.3,3.3-10.5,6-15.6c1.7,5.4,3.5,10.8,5.1,16.3c0.8,2.7,2,3.7,4.9,3.6c5.5-0.2,11-0.1,16.6-0.1
			c0.2,0.4,0.3,0.8,0.5,1.3c-4.2,3.1-8.2,6.3-12.6,9.1c-3.1,2-3.9,4-2.5,7.5c2,4.9,3.3,10.1,3.9,15.8c-5.4-4-10.9-8-16.5-12.1
			c-5.6,4.2-11.1,8.3-16.5,12.3c-0.3-0.2-0.7-0.4-1-0.5c1.6-4.9,3.1-10,4.9-14.8C166.1,370.2,165.8,367.7,162.1,365.5z M215.3,280.9
			c1.2,3.7,2.4,7.5,3.7,11.2c0,0.1-0.1,0.3-0.4,1.4c-5.8-4.3-11.2-8.3-16.9-12.6c-5.5,4.1-11,8.1-16.4,12.1
			c-0.4-0.2-0.7-0.4-1.1-0.6c1.6-4.8,2.8-9.8,4.7-14.5c1.5-3.8,0.9-6.2-2.6-8.5c-4.2-2.6-8.1-5.8-12-10.1c5.2,0,10.5-0.3,15.7,0.1
			c3.8,0.3,5.4-1,6.3-4.6c1.3-5.2,3.1-10.2,5.2-17c2.2,6.9,4.1,12.2,5.6,17.7c0.8,3,2.2,4,5.3,3.9c5.4-0.2,10.8-0.1,16.8,1
			c-3.2,2.5-6.5,4.9-9.8,7.4C212.6,272.7,212.6,272.7,215.3,280.9z M219.8,174c-5.5,7.6-13.5,6.9-26.7,1.8
			C198.6,167.2,206.2,169.2,219.8,174z M207.6,184.4c-8.1,10.5-17.8,6-27.1,4.6C183.4,179.4,194.8,181.3,207.6,184.4z M195.4,195.7
			c-7,11.9-17.6,6.1-27,7C171.4,194.1,178.9,192.2,195.4,195.7z M183.6,207.1c-3.1,10.3-9.7,9.5-26.3,8.5
			C163.8,204,174.3,208.1,183.6,207.1z M173.8,221.2c-5.9,11.9-16.3,8.9-25.6,9.9C150.1,221.1,158.1,220.9,173.8,221.2z
			 M163.7,234.6c-1.7,9.8-11,11.5-24,11C140.2,237.7,149.6,234.6,163.7,234.6z M155,248.5c-0.7,10.8-10,12.4-24,13.5
			C135,249.3,146,251.2,155,248.5z M147.7,264.3c-0.6,8.2-6.7,12.1-23.2,14.7C126.3,268.4,134.5,265.8,147.7,264.3z M141.7,279.3
			c-0.5,9.5-7.5,13.1-21.9,16C119.7,285.8,127.7,282.4,141.7,279.3z M136.2,295.5c0,10.7-7.1,12.6-20.3,17.2
			C115.6,303.6,124.7,296.1,136.2,295.5z M131.9,310.3c2.4,9.8-6.2,15.3-19.4,19.9C112.6,316.6,124.3,315.8,131.9,310.3z
			 M129.2,327.6c1,13.5-10.5,15.2-17.6,21C108.5,338.3,115.9,333.8,129.2,327.6z M127.4,344.1c0.8,10.8-2.3,13-16.3,21.4
			C108.2,355.8,113.5,351.9,127.4,344.1z M126.3,360.8c2.6,10-1.2,13.3-14.5,22.3C107.6,374.4,114.4,368.5,126.3,360.8z
			 M126.7,377.4c4.3,8.4-2.4,15.7-13,23.4C109.7,391.9,114.7,386.9,126.7,377.4z M127.7,393.7c6.5,7.3-0.6,16-11.2,24.9
			C112.2,406.1,122.1,401,127.7,393.7z M131.4,409.9c3.6,9.6-0.3,18.7-10.4,25.5C116.2,426.7,120.4,421.5,131.4,409.9z M135.1,425.9
			c6,11.8-2.4,18.6-7.4,26.5C120.5,445.1,124.7,439.5,135.1,425.9z M140.3,442c7.1,11.4-1.8,18.4-5.8,26.7
			C127,462.3,131.3,453.8,140.3,442z M145.9,457.9c7,6.8,4,13.6-4.1,26.9C135.4,476.4,138.2,470.7,145.9,457.9z M152.8,471.6
			c9.3,11,1.6,19.4-1.6,29C141.4,490.1,150.1,481.7,152.8,471.6z M161,514.7c-7.9-7.2-5.7-13.1,0.3-27.1
			C168,491.9,167.9,500.4,161,514.7z M172.2,528c-7.7-4.1-7.6-11-1.7-27.1C177.8,506.8,178.2,514.5,172.2,528z M184,541.5
			c-9-6.5-7.1-12.7-3.4-26.9C188.7,518,188.6,527.3,184,541.5z M196.7,553.5c-9.3-5.9-8-11.7-4.8-26.6
			C200.3,531.8,200.6,538.1,196.7,553.5z M210.5,564.9c-8.5-4.7-10.2-11.2-6.8-25.8C212.8,541.5,212.4,550.4,210.5,564.9z
			 M224.9,574.8c-9.5-2.7-9.5-10.7-8.8-25.1C224.4,551.6,227,559.1,224.9,574.8z M239.9,583.9c-10.4-2.5-9.7-10.2-10.3-24.7
			C238.7,561.3,241.3,571.5,239.9,583.9z M243.7,521c3.8,0,7.7,0.1,11.5,0c10.8-0.2,8.3,1.5,11.6-8.4c1.2-3.7,2.4-7.3,3.6-11
			c0.5,0,0.9,0.1,1.4,0.1c1.6,4.9,3.4,9.8,4.6,14.8c0.8,3.4,2.5,4.6,6,4.5c5.3-0.3,10.6-0.1,16.3,1.1c-5.4,4-10.7,8-16.4,12.3
			c2.1,6.5,4.1,13.1,6.2,19.7c-0.3,0.3-0.5,0.5-0.8,0.8c-5.5-4-11-8-16.7-12.2c-5.6,4.1-11,8.1-16.4,12.2c-0.3-0.2-0.7-0.3-1-0.5
			c2.1-6.5,4.1-13,6.3-19.9c-5.4-4-11-8.1-16.5-12.2C243.5,521.8,243.6,521.4,243.7,521z M243.6,567.7c12.8,4.4,10.9,15.4,12.9,24.7
			C246.5,591.4,244.4,582.3,243.6,567.7z M258.4,576.6c8.6,0.1,11.4,6.3,14.2,23.2C262.6,598.1,260.1,590.9,258.4,576.6z M272.6,583
			c10.3,0.1,14.2,8.9,16.1,22.6C275.7,603.6,276.6,592,272.6,583z M288.6,589.8c10.1-2.4,13.5,6.7,17.7,20.6
			C293,609.2,292.9,597.9,288.6,589.8z M305.3,594c9.5-2,13.6,6.4,18,19.1C313.8,615,309.7,606.8,305.3,594z M321.2,597.2
			c11.1-0.4,13.1,4.4,19.9,18.6C333.1,617.7,326.8,611.8,321.2,597.2z M337.9,600.1c8.6-3.5,14.3,4,20.8,16.4
			C348.2,618.4,345.8,614,337.9,600.1z M353.8,600.6c13.2-2.1,16.7,8.3,22.8,15.2C366.5,619.5,363.6,614.8,353.8,600.6z M371,601.1
			c9.3-3.2,15.2,2.6,23.2,14.2C386.1,619.6,378.9,612.6,371,601.1z M387.7,600.2c9.5-4,14,0.8,23.9,12.1
			C401.8,616.4,397.8,612.2,387.7,600.2z M404.2,598.9c5.9-7.1,16.2-0.1,25.1,10.3C417.1,613.8,411.6,604.4,404.2,598.9z
			 M420.3,594.2c12.3-5.7,18.1,4.3,26.5,9C438,608.1,429.2,605,420.3,594.2z M436,590.2c11.8-6.8,18.6,2.4,27.1,6.7
			C454.6,603.9,449.4,599.8,436,590.2z M452,584.8c7.8-6,14.3-3.6,26.7,5.3C472.7,596,464.4,593.4,452,584.8z M467.8,578.3
			c6.5-7.1,11.8-5,27.1,3.3C486.4,588.2,481.4,586,467.8,578.3z M482,570.4c8.9-7.4,11.9-5.8,27.1,1.6
			C502.7,579.3,497,577.4,482,570.4z M496.5,561.8c6.1-8.1,14.2-5.9,26.9-0.2C517.3,569.2,511.6,567.8,496.5,561.8z M510.6,552
			c3.8-8.2,14-6.9,26.6-1.9C530.5,558.1,525.1,557.1,510.6,552z M522.7,541.5c4.5-7.9,14.1-8.1,26.6-4.1
			C546.6,546.2,535.2,545,522.7,541.5z M535.2,529.9c4.1-7.9,11.7-9.6,25.9-5.8C558.2,531.9,546.3,534.6,535.2,529.9z M546.6,518.1
			c2.2-9.5,12.2-9.7,25.5-8C568.2,519.5,561.6,519.2,546.6,518.1z M557.1,504.8c1.6-8.2,9.3-11.1,24.8-9.2
			C577.8,505.8,572.2,504.5,557.1,504.8z M566.2,491.1c2.3-9.8,9.5-10.7,24-11.2C591.1,488.2,578.6,491.4,566.2,491.1z M574.2,477
			c2.8-10.6,9.3-11.8,23.8-13C597,472.9,590.5,475.2,574.2,477z M582.2,461.8c0.5-8.2,5.8-11.8,23.1-15.1
			C603.4,457.4,597.1,459.3,582.2,461.8z M588.5,446.4c0.2-8.6,5-12.2,21.7-16.2C610,439.9,602.2,443.6,588.5,446.4z M593.9,430.9
			c-1-10.2,7-13.4,19.6-17.6C615.6,420.7,609.7,426,593.9,430.9z M597.5,415c-0.3-13.7,11.4-14.7,19.1-20
			C618.7,403.4,613.4,408.9,597.5,415z M600.2,398.2c-0.6-12.9,10.6-15.1,18-20.9C621.8,386.8,613.5,392.9,600.2,398.2z
			 M602.8,381.6c-2.1-9.6,3.1-13.7,16-21.1C622.2,369.5,615.8,374.7,602.8,381.6z"/>
		<path d="M264.1,329.1c0,0.1,0.1,0.3,0.1,0.4l7.5-1.8L264.1,329.1z"/>
		<path d="M263.7,327.2c0,0.1,0,0.3,0.1,0.4l7.5-1.6L263.7,327.2z"/>
		<path d="M263.8,327.8c0,0.1,0,0.1,0,0.2c0,0.1,0,0.2,0,0.3l7.5-1.6L263.8,327.8z"/>
		<path d="M263.9,328.5c0,0.1,0.1,0.3,0.1,0.4l7.5-1.7L263.9,328.5z"/>
		<path d="M264.2,329.7c0,0.1,0.1,0.3,0.1,0.4l7.5-1.8L264.2,329.7z"/>
		<path d="M264.5,331c0,0.1,0.1,0.3,0.1,0.4l7.4-2L264.5,331z"/>
		<path d="M264.3,330.3c0,0.1,0.1,0.3,0.1,0.4l7.4-1.9L264.3,330.3z"/>
		<path d="M263.3,324.5c0,0.1,0,0.3,0.1,0.4l7.6-1.2L263.3,324.5z"/>
		<path d="M263.6,326.5c0,0.1,0,0.1,0,0.2c0,0.1,0,0.2,0,0.3l7.5-1.5L263.6,326.5z"/>
		<path d="M437.3,279.9c3.4,3.2,6.6,7.1,9.3,11.9c0.6-1.3,1.1-2.7,1.6-4c5.3-13.8,5-21,2.8-23.1c-0.7-0.7-4-2.8-14.9,0.6
			c0.3,2,0.5,4.1,0.7,6.3C437.1,274.4,437.2,277.3,437.3,279.9z"/>
		<path d="M264.4,307.9L264.4,307.9c-0.1,0.2-0.1,0.4-0.1,0.6c2.5,0.6,5,1.1,7.5,1.8C269.3,309.4,266.8,308.7,264.4,307.9z"/>
		<path d="M263.5,325.9C263.5,325.9,263.5,325.9,263.5,325.9c0,0.2,0,0.3,0.1,0.4l7.6-1.4L263.5,325.9z"/>
		<path d="M263.4,325.2c0,0.1,0,0.3,0.1,0.4l7.6-1.3L263.4,325.2z"/>
		<path d="M268.3,343.6c0,0.1,0.1,0.2,0.1,0.4l7.1-2.9L268.3,343.6z"/>
		<path d="M268.9,345.3c0,0.1,0.1,0.2,0.1,0.4l7.1-3L268.9,345.3z"/>
		<path d="M269.6,346.9c0,0.1,0.1,0.2,0.1,0.3l7-3.1L269.6,346.9z"/>
		<path d="M269.3,346.4c0,0.1,0.1,0.2,0.1,0.3l7-3.1L269.3,346.4z"/>
		<path d="M269.8,347.4c0,0.1,0.1,0.2,0.1,0.3l7-3.1L269.8,347.4z"/>
		<path d="M274.5,357.6c0.1,0.1,0.1,0.2,0.2,0.3l6.7-3.8L274.5,357.6z"/>
		<path d="M270,348c0,0.1,0.1,0.2,0.1,0.3l7-3.2L270,348z"/>
		<path d="M274.7,358.1c0.1,0.1,0.1,0.2,0.2,0.3l6.7-3.8L274.7,358.1z"/>
		<path d="M268.1,343.1c0,0.1,0.1,0.2,0.1,0.4l7.1-2.9L268.1,343.1z"/>
		<path d="M267.9,342.6c0,0.1,0.1,0.2,0.1,0.4l7.1-2.8L267.9,342.6z"/>
		<path d="M267.7,342c0,0.1,0.1,0.2,0.1,0.4l7.2-2.8L267.7,342z"/>
		<path d="M268.5,344.2c0,0.1,0.1,0.2,0.1,0.4l7.1-2.9L268.5,344.2z"/>
		<path d="M268.7,344.7c0,0.1,0.1,0.2,0.1,0.4l7.1-3L268.7,344.7z"/>
		<path d="M264.6,331.6c0,0.1,0.1,0.2,0.1,0.4c0,0,0,0,0,0l7.4-2L264.6,331.6z"/>
		<path d="M302.9,476.5c0.1,1.7,1.1,9.2,9.5,14l0,0c1.7-0.2,8.9-3.7,15.9-7.4c-6.1-8.7-10.1-16.1-12.5-22.1L302.9,476.5z"/>
		<polygon points="283.6,373.2 283.7,373.5 290.4,369.7 		"/>
		<polygon points="283.4,372.9 283.5,373.1 290.2,369.3 		"/>
		<polygon points="283.2,372.5 283.3,372.8 289.9,368.8 		"/>
		<polygon points="283.8,373.6 283.9,373.8 290.6,370.1 		"/>
		<polygon points="284.1,374.3 284.2,374.5 291,370.9 		"/>
		<path d="M284.3,374.6l0.1,0.2c2.3-1.1,4.6-2.3,6.9-3.5L284.3,374.6z"/>
		<polygon points="284.4,374.9 284.5,375.1 291.4,371.7 		"/>
		<polygon points="283,372.2 283.1,372.4 289.7,368.4 		"/>
		<path d="M436.1,292.5c0.7,0.4,1.1,1.2,1.1,1.9c1,1,1.5,1.8,1.7,2.1l4,6.1c0.2-1.2,0.6-2.1,0.9-2.8c-0.1-0.2-0.1-0.3-0.1-0.5
			c-7.4-18-22.6-24-29.6-25.4C418.7,279.3,426.1,286.5,436.1,292.5z"/>
		<path d="M265.3,305.3c-0.1,0.1-0.1,0.3-0.2,0.4c0,0,0,0.1,0,0.1c2.4,0.8,4.8,1.6,7.2,2.4C270,307.3,267.6,306.3,265.3,305.3z"/>
		<path d="M289.7,327l-24.5,6.2c-0.7,1.4-1.3,2.8-2.1,4.4l29.9-9.1C291.9,328.1,290.7,327.5,289.7,327z"/>
		<path d="M289.1,317.7C289.1,317.7,289.1,317.7,289.1,317.7c-0.1-0.2-0.1-0.4-0.1-0.7c-0.1-0.1-0.3-0.2-0.4-0.3l-25.1-3.3
			c-1.3,1.4-2.5,2.9-3.6,4.6l29.4,0.2C289.2,318,289.2,317.9,289.1,317.7z"/>
		<path d="M265.8,304.5c0,0.1-0.1,0.2-0.1,0.3c0,0,0,0,0,0c-0.1,0.1-0.1,0.2-0.2,0.2c2.4,0.9,4.8,1.7,7.1,2.7
			C270.3,306.6,268,305.5,265.8,304.5z"/>
		<polygon points="282.5,371.4 282.7,371.7 289.2,367.6 		"/>
		<polygon points="282.8,371.8 282.9,372 289.5,368 		"/>
		<path d="M296.8,340.5c-1.1-0.3-1.9-0.6-2.8-0.9l-23.3,9.9c-0.5,1.4-1,2.9-1.5,4.5l27.5-12.8C296.9,340.9,296.8,340.7,296.8,340.5z
			"/>
		<path d="M302.7,352.1c-0.9-0.2-1.7-0.4-2.5-0.5l-21.7,13l-0.2,0.9c-0.2,1.2-0.5,2.4-0.7,3.5l25.5-16
			C303,352.7,302.9,352.4,302.7,352.1z"/>
		<path d="M340.5,436.9l-1,7c0,0,0,0,0,0.1l-1.8,10.3c0.7-0.7,1.6-1.2,2.7-1.4c0,0,0,0,0-0.1l0-1.8c-0.1,0-0.1-0.1-0.2-0.1
			c0.1,0,0.1,0,0.2,0l0.1-6.3c0-0.4-0.1-0.6-0.1-0.6s0,0,0.1,0.1L340.5,436.9z"/>
		<path d="M343.6,416c0,0-0.1,0-0.1-0.1l-0.7,4.7c0.1,0,0.2-0.1,0.3-0.3c0-0.3,0-0.5,0-0.5s0,0.1,0.1,0.2
			C343.5,419.2,343.6,417.2,343.6,416z"/>
		<path d="M343.6,415.2c0.3-0.7,0.4-1.9,0.5-3C343.9,413.1,343.8,414.1,343.6,415.2z"/>
		<path d="M272.9,307c-2.2-1.1-4.4-2.2-6.6-3.3c0,0,0,0,0,0c-0.1,0.1-0.2,0.3-0.3,0.5C268.2,305.1,270.6,306,272.9,307z"/>
		<path d="M342.7,421.6c0.2,0.1,0.3,0.2,0.4,0.4c0-0.3,0-0.7,0-1c-0.1-0.1-0.2-0.1-0.3-0.2L342.7,421.6z"/>
		<path d="M341,462.1c-1.9,0-3.5-1.1-4.2-2.7l-2.2,12.5c0,0,0,0,0,0c0,0.6,0.7,5.1,11.4,24l1.7,2l1.7-33.4l-4.2-5.2
			C344.5,461,342.9,462.1,341,462.1z M341,479.7c-2.6,0-4.7-2.1-4.7-4.7c0-2.6,2.1-4.7,4.7-4.7c2.6,0,4.7,2.1,4.7,4.7
			C345.7,477.6,343.6,479.7,341,479.7z"/>
		<path d="M401.3,471.9l-2.2-12.5c-0.7,1.6-2.4,2.7-4.2,2.7c-1.9,0-3.5-1.1-4.2-2.8l-4.2,5.2l1.7,33.4l1.7-2
			C400.6,477,401.2,472.4,401.3,471.9C401.3,471.9,401.3,471.9,401.3,471.9z M394.9,479.7c-2.6,0-4.7-2.1-4.7-4.7
			c0-2.6,2.1-4.7,4.7-4.7s4.7,2.1,4.7,4.7C399.5,477.6,397.5,479.7,394.9,479.7z"/>
		<path d="M378,456.6c7.2-1.3,12-5.5,14.8-8.6l0-0.6c-7.8,4-15.5,4.4-15.2,4.2c7.6-1.4,12.5-5.8,15.1-9l0-0.4
			c-7.9,4.2-15.8,4.6-15.5,4.4c8-1.5,13-6.3,15.4-9.3l0-0.2c-8,4.3-16.1,4.7-15.8,4.5c8.5-1.6,13.5-6.8,15.7-9.7
			c-8.2,4.5-16.4,4.9-16.1,4.6c8.7-1.6,13.6-6.8,15.7-9.7c-8.2,4.5-16.4,4.9-16.1,4.6c8.9-1.7,13.8-6.9,15.7-9.7
			c-8.2,4.5-16.4,4.8-16.1,4.6c9.1-1.7,13.9-7.1,15.7-9.6c-8.2,4.5-16.4,4.8-16.1,4.6c9.4-1.7,14-7.2,15.7-9.6
			c-8.2,4.5-16.4,4.8-16.1,4.5c9.6-1.8,14.2-7.3,15.7-9.6c-8.2,4.5-16.4,4.8-16,4.5c8.9-1.7,13.3-6.4,15.1-8.8
			c0-0.1-0.1-0.3-0.1-0.4c-8,4.2-15.7,4.4-15.4,4.1c7.9-1.5,12.2-5.2,14.3-7.7c-0.1-0.3-0.2-0.6-0.3-0.9c-7.6,3.7-14.7,3.8-14.3,3.6
			c6.8-1.3,10.9-4.2,13.2-6.5c-2.2-5.2-4.1-6.4-4.2-6.5c-0.1,0-0.1-0.1-0.2-0.1l-13.8-8.5c-0.4-0.3-0.7-0.7-0.9-1.2
			c-0.1,0-0.1,0-0.2,0c0,0,0,0,0,0c-0.1,0-0.1,0-0.2,0c-0.1,0.5-0.4,0.9-0.9,1.2l-13.8,8.5c0,0,0,0,0,0c-0.2,0.2-2,1.7-4.2,6.6
			c2.3,2.3,6.4,5.2,13.2,6.5c0.3,0.2-6.7,0.1-14.3-3.6c-0.1,0.3-0.2,0.6-0.3,0.9c2.1,2.5,6.4,6.2,14.3,7.7c0.3,0.2-7.4,0.1-15.4-4.1
			c0,0.1-0.1,0.3-0.1,0.4c1.8,2.4,6.2,7.1,15.1,8.8c0.3,0.2-7.9,0-16-4.5c1.5,2.3,6,7.8,15.7,9.6c0.3,0.2-7.9,0-16.1-4.5
			c1.7,2.4,6.3,7.9,15.7,9.6c0.3,0.2-7.9,0-16.1-4.6c1.8,2.6,6.6,7.9,15.7,9.6c0.3,0.2-7.9-0.1-16.1-4.6c2,2.7,6.8,8,15.7,9.7
			c0.3,0.2-7.9-0.1-16.1-4.6c2.1,2.9,7,8.1,15.7,9.7c0.3,0.2-8-0.1-16.1-4.6c2.2,3,7.2,8.1,15.7,9.7c0.3,0.2-7.8-0.2-15.9-4.6l0,0.2
			c2.4,3.1,7.4,7.9,15.5,9.5c0.3,0.2-7.6-0.2-15.6-4.4l0,0.4c2.6,3.2,7.6,7.7,15.2,9.1c0.3,0.2-7.4-0.2-15.2-4.2l0,0.6
			c2.8,3.2,7.6,7.4,14.9,8.7c0.3,0.2-7-0.2-14.7-4l17.3,21.2l7.3,5.3l7.3-5.3l17.2-21.2C384.9,456.4,377.7,456.8,378,456.6z"/>
		<polygon points="368,481.6 368,502.7 368,502.7 368,481.6 368,481.6 		"/>
		<path d="M293.1,391.3l1.5-0.8c-0.3-1.3-0.4-2.8-0.4-4.1l-1.1,0.6L293.1,391.3z"/>
		<path d="M330.9,471.2L330.9,471.2l4.8-27.9l4.1-28.7c2.7-17.9,6.9-25.4,9.4-28.3l-0.2-0.4l-0.3-0.8c0,0-0.1-0.3-0.2-0.5
			c-0.1-0.3-0.4-0.4-0.6-0.7c-0.2-0.3-0.3-0.3-0.5-0.8c-0.3-0.5,0,0-0.1-0.3c-0.1-0.3-0.3-0.4-0.3-0.4l-0.5-1l0.5,0.6
			c0,0,0.4,0.2,0.8,0.3c0.3,0.1,0.4,0.3,0.4,0.3s0,0,0.8,0.9c0.8,0.9,0.3,0.3,0.3,0.3l0.5,0.4l0.6,0.4l0.2,0.2
			c0.2-0.2,0.4-0.3,0.5-0.3l12.9-8c0.3-3.9,2-8.1,2.1-8.4l-0.2-19.7c-2.7,1-6.3,2.4-8.4,3.2c0,0.1,0,0.1,0,0.1
			c-14.4,16.5-40.5,14.9-41.9,13.3c-12.8-9.9-15.7-28.5-16-40.7c0.8-5,4.2-11.1,16.7-6.2c0.1,0,0.2-0.1,0.3-0.2
			c38.4,14.5,41.4,28.1,41.2,32.4c2.8-2.6,5.9-3.9,8.2-4.6l-0.2-27.3c-0.2,0-0.3,0-0.5,0c-5.2,0-7.6-2.3-8.6-3.9
			c-0.2-0.3-0.3-0.5-0.3-0.8c-0.3-3.1-5.6-6.4-7.5-7.3c-1.2-0.5-12.3-5.4-13.4-6c-15.9-7.4-25-7.4-29.8-6.1c-0.2,0-0.3,0.1-0.5,0.1
			c-0.9,0.6-1.8,1.2-2.8,1.7c-0.4,0.2-0.8,0.3-1.2,0.3c0,0,0,0-0.1,0c-1.1,0.9-1.5,1.7-1.5,1.7c0,0.1-0.1,0.1-0.1,0.2l-8.5,13.1
			c-0.4,0.6-1.1,0.9-1.8,0.8c-0.1,0.5-0.1,1,0,1.6c0,0.1,0,0.3-0.1,0.4c0,0-0.1,0-0.1,0c0,0.1,0.1,0.2,0.1,0.3
			c-0.1,0.2-0.1,0.3-0.2,0.5c0,0.1-0.1,0.3-0.1,0.4c0,0.2-0.1,0.4-0.1,0.6l0,0c0.1,0,0.1,0,0.2,0.1c0.2,0.1,0.3,0.2,0.5,0.4l0.1,0
			c0.1,0.1,0.1,0.1,0.1,0.2c0,0.3,0.1,0.5,0.1,0.8c0.1,0.3,0.2,0.7,0.3,0.9c0.1,0.3,0.3,0.7,0.5,1.2c0.1,0.2,0,0.3-0.1,0.4
			c-0.5,0.4-1,0.8-1.5,1.2c-0.1,0.1-0.1,0.1-0.2,0.1l0,0c0.2,1.6,0.5,3.3,0.9,5l0,0c0.1,0,0.2,0,0.3,0c1.3,0.6,2.7,1.3,4.2,1.9
			c0.1,0,0.2,0,0.3,0.1c0,0,0,0.1,0.1,0.1c0,0,0,0.1,0,0.1c0,0.1-0.1,0.2-0.1,0.3c-0.8,1.3-1.6,2.6-2.4,4.1c0,0,0,0,0,0
			c0,0.1-0.1,0.2-0.2,0.2l0,0c0.7,1.9,1.4,3.8,2.2,5.7l0,0c0.1,0,0.2,0,0.3,0c0.9,0.3,1.9,0.6,3,1c0.1,0,0.2,0.2,0.2,0.3
			c0,0.3,0.1,0.7,0.1,1.1c0.1,0.5,0.3,1,0.5,1.4c0,0.1,0,0.2,0,0.3c-0.3,0.8-0.6,1.6-0.9,2.3c0,0.1-0.1,0.2-0.2,0.2l0,0
			c0.9,1.8,1.9,3.6,3,5.4l0,0c0.1-0.1,0.2-0.1,0.3,0c0.9,0.2,1.8,0.4,2.8,0.6c0.1,0,0.2,0.1,0.2,0.2c0.2,0.4,0.4,0.9,0.6,1.3l0,0
			c0.3,0.6,0.6,1.2,0.9,1.8c0,0.1,0,0.1,0,0.2c-0.2,0.9-0.3,1.7-0.5,2.6c0,0,0,0,0,0.1c0,0.1-0.1,0.2-0.2,0.2l-9,5.4l8.9-5.3
			c1.4,2.3,2.8,4.9,4.1,7.9l0,0c0.1,0,0.2,0,0.3,0c0,0,0.1,0,0.1,0.1l1.2,0.8l0.3,0c0.1,0,0.2,0,0.4,0c0.1,0,0.1,0,0.2,0
			c0.6,0,1.3,0.2,2.1,0.3c0.1,0,0.2,0.1,0.2,0.2l0,0.1c0,0,0,0,0,0l0.1,0.1c0.1,0.1,0.1,0.2,0,0.3c-0.6,1.3-1.1,2.9-1.6,4.6
			c0,0,0,0,0,0c0,0.1-0.1,0.2-0.2,0.2l-5.5,2.7v0l5.5-2.7c0.3,0.5,0.5,1.1,0.8,1.7c-1.1,0.8-2.3,1.5-3.4,2.2c-1.5,0.9-3,1.7-4.5,2.5
			l0,0.9c-0.1-0.3-0.1-0.5-0.1-0.8c-0.4,0.2-0.7,0.4-1.1,0.5l0.5,1.7l-2.4,1.4l0,0.8c-0.1-0.2-0.1-0.5-0.1-0.7l-1.4,0.8l0,1.7
			c-0.1-0.5-0.2-1-0.3-1.6l-1.3,0.7l0,2.7c-0.2-0.8-0.3-1.6-0.3-2.5l-1.2,0.7l0,3.6c-0.2-1.1-0.4-2.2-0.4-3.3l-1.1,0.6l-0.1,4.4
			l20.1-10.2l-23.7,14.8l8.2,7.6l7.5-6.7c7.6-7.1,12-3.4,13.2-2.6c4.3,2.4,6.8,5.5,7.8,8.1c-0.7-0.5-1.7-0.5-2.4,0.1l-12.4,10.1
			c-0.2,0.1-3.7,2.9-3.9,7c-1.2-1.2-1.9-2.4-1.9-3.5c-0.1-2.4,2.4-4.3,2.5-4.4l12.4-10.2c0.8-0.7,1-1.9,0.3-2.8
			c-0.7-0.8-1.9-1-2.8-0.3l-12.4,10.1c-0.1,0.1-1.4,1.1-2.5,2.9l0.7,1c0.2,0.4,0.4,0.8,0.4,1.3l2,18.3l8.9,8.9
			c0.6,0.6,0.9,1.5,0.8,2.4c0,0.1-1,14,16.4,38.3C331.8,476.4,330.6,472.9,330.9,471.2z M361.2,359.4c1.1,0,2.1,0.9,2.1,2.1
			c0,1.1-0.9,2.1-2.1,2.1s-2.1-0.9-2.1-2.1C359.2,360.4,360.1,359.4,361.2,359.4z M361.2,370.6c1.1,0,2.1,0.9,2.1,2.1
			c0,1.1-0.9,2.1-2.1,2.1s-2.1-0.9-2.1-2.1C359.2,371.5,360.1,370.6,361.2,370.6z M328.1,408.2l-7.4,16.6c-0.4,0.5-0.9,0.8-1.3,1.1
			c-1.4-0.9-2.8-1.8-3-2c-0.1,0-0.1-0.1-0.2-0.1c-0.1-0.2-0.3-0.4-0.5-0.5c-0.2-0.1-0.4-0.3-0.6-0.4c-1.4-1.2-2.1-2.5-2.1-3.7
			c-0.1-2.4,2.4-4.3,2.5-4.4l12.4-10.2c0.2-0.2,0.4-0.4,0.5-0.7C328.7,406.4,328.1,408.2,328.1,408.2z"/>
		<path d="M284.6,375.2l0.1,0.2c2.3-1.1,4.6-2.2,6.9-3.3L284.6,375.2z"/>
		<path d="M310.8,367.4c0,0-0.1,0-0.2,0c-0.1,0-0.2,0-0.3,0l-0.4,0.1c-0.1,0-0.2,0-0.2-0.1l-1.2-0.8l-23.4,9.6
			c-0.2,0.2-0.4,0.5-0.6,0.7c0,0.2-0.1,0.4-0.1,0.6l0,0.3c0,0.2-0.1,0.4-0.1,0.5c0,0.1,0,0.2-0.1,0.4c-0.2,0.9-0.3,1.7-0.5,2.4
			l28.1-13.5C311.5,367.4,311.1,367.4,310.8,367.4z"/>
		<polygon points="305.6,375.4 305.1,375.7 305.6,375.4 		"/>
		<path d="M291.6,392.1l1.4-0.7c-0.2-1.4-0.3-2.8-0.3-4.1l-1,0.6L291.6,392.1z"/>
		<path d="M316.4,393.7c-0.7-0.8-1.9-1-2.8-0.3l-12.4,10.1c0,0-0.3,0.2-0.7,0.6l2.2,3.4c0.5-0.6,0.9-0.9,1-0.9l12.4-10.2
			C316.9,395.8,317.1,394.6,316.4,393.7z"/>
		<path d="M291,388.2l-0.6,0.3v4.1l0.8-0.4C291,390.9,291,389.5,291,388.2z"/>
		<polygon points="283.9,373.9 284.1,374.2 290.8,370.5 		"/>
		<path d="M328.7,259.1c-1.5-2.2-3.7-5.4-4.6-6.8c-18.5-2.3-32.6,13-34.7,15.5l0,0.5c10.5-9.5,19.8-11.3,19.9-11.3l0.3,2
			c-9.3,2.2-17.3,10.5-20.5,14.4l-0.1,1.7c2-2,5.1-4.8,9.4-7.6C304.9,263.3,315.3,258.5,328.7,259.1z"/>
		<path d="M290.3,277.7l4.2,0.6c11.6-12.9,29.8-13.8,34.1-13.8c0.4-0.8,0.8-1.7,1.1-2.4C308.9,260.5,294.9,272.8,290.3,277.7z"/>
		<path d="M291.8,280.6c0.7,1.5,1.4,2.9,2.1,4.4c0-0.1,0.1-0.1,0.1-0.2l-1.7-4.2L291.8,280.6z"/>
		<path d="M292.9,302l3.6-5.5c0.2-0.4,1-1.6,2.5-2.9c0.1-0.6,0.5-1.1,1.1-1.4c13.7-8.1,23.8-19.1,28.3-24.4l-0.9-0.6
			c-5.6,0.3-21.1,2-30.9,13c0.2,0.3,0.5,0.6,0.7,1l0.2-0.2l1.1,1.8c0.1,0.2,0.3,0.4,0.5,0.5c6.5-4,17-7.8,17.5-7.8h0.7l0.3,0.6
			l0.3,0.6l-0.6,0.6l-0.2,0.1c-8.7,3.6-13.7,6.8-16.4,8.8l0,0.1l-0.7,0.9c-3.1,3.6-5.7,7.8-7.6,12.5
			C292.3,300.3,292.6,301.1,292.9,302z"/>
		<path d="M290.2,281.2c0.3-0.1,0.5-0.3,0.8-0.4c0,0,0,0,0,0l0.4-0.2c-0.1,0.1-0.3,0.1-0.4,0.2c0.8,1.6,1.6,3.2,2.4,4.8
			c0,0,0.1-0.1,0.1-0.1l-2.1-4.9c0,0,0.1,0,0.1,0l-3.9-0.5l0,0.6c0.8,0.1,1.5,0.2,2.3,0.3C290.1,281.1,290.2,281.1,290.2,281.2z"/>
		<path d="M290.5,305.6c-0.1,0-0.1-0.1-0.2-0.1c0,0.1,0,0.2,0,0.3L290.5,305.6z"/>
		<path d="M292.3,287.1l-2.7-5.4c-1.7-0.3-3.5-0.5-5.3-0.7c0,0-0.1,0-0.1,0.1l5.8,9.4C290.8,289.3,291.6,288.2,292.3,287.1z"/>
		<path d="M375.5,312.9c0.9-5.5,8.6-9.3,9.5-9.7c5-2.2,12.7-5.6,13.3-6c0,0,0,0,0,0c11.5-5.3,19.9-7.1,26-7.1
			c-9.4-7.2-15.4-14.7-18.3-18.6c-5.8-3.6-11.9-5.4-18.2-5.4c-9,0-15.8,3.7-18.3,5.3c-0.2,0.1-0.3,0.2-0.5,0.3v43.2
			C372.1,315,374.4,314.3,375.5,312.9z M372.1,293.8c1.1,0,2.1,0.9,2.1,2.1c0,1.1-0.9,2.1-2.1,2.1c-1.1,0-2.1-0.9-2.1-2.1
			C370,294.7,371,293.8,372.1,293.8z M372.1,301.8c1.1,0,2.1,0.9,2.1,2.1c0,1.1-0.9,2.1-2.1,2.1c-1.1,0-2.1-0.9-2.1-2.1
			C370,302.8,371,301.8,372.1,301.8z"/>
		<path d="M423.4,258.3c-1.5-5-3.4-7.4-5.1-8c-1.2-0.4-6.2-1-17.9,11.9c2.6,0.9,5.1,2.1,7.6,3.5
			C413.6,262.8,418.7,260.3,423.4,258.3z"/>
		<path d="M425.8,272c-0.1-0.9-0.2-1.8-0.3-2.6c-0.9,0.4-1.8,0.8-2.8,1.3C423.7,271.1,424.8,271.5,425.8,272z"/>
		<path d="M292.7,280.8c0.6,1.2,1.1,2.4,1.7,3.7c0-0.1,0.1-0.1,0.1-0.2l-1.3-3.4L292.7,280.8z"/>
		<path d="M295,283.6l-0.5-1.4c-0.3-0.4-0.5-0.6-0.5-0.6c-0.2-0.2-0.3-0.4-0.4-0.7l-0.1,0c0.4,1,0.8,1.9,1.3,2.9
			C294.9,283.8,295,283.7,295,283.6z"/>
		<path d="M311.5,290.1c6,0.1,14.3,1.9,25.5,7.1c0,0,0,0,0,0c0.6,0.3,8.3,3.7,13.3,5.9c0.9,0.4,8.6,4.2,9.5,9.7
			c1.1,1.4,3.3,2.1,6.2,1.9V271c-5.4-3.7-11.8-5.7-17.9-5.7c-5.2,0-10.3,1.4-15.1,4.2C329.7,273.5,322.2,282.1,311.5,290.1z
			 M363.1,293.8c1.1,0,2.1,0.9,2.1,2.1c0,1.1-0.9,2.1-2.1,2.1s-2.1-0.9-2.1-2.1C361.1,294.7,362,293.8,363.1,293.8z M363.1,301.8
			c1.1,0,2.1,0.9,2.1,2.1c0,1.1-0.9,2.1-2.1,2.1s-2.1-0.9-2.1-2.1C361.1,302.8,362,301.8,363.1,301.8z"/>
		<path d="M275.4,291.6c-0.1,0.1-0.2,0.2-0.3,0.3l5.4,5.4L275.4,291.6z"/>
		<path d="M267,302c-0.1,0.1-0.1,0.2-0.1,0.3c0,0.1-0.1,0.1-0.1,0.2c0,0,0,0.1,0,0.1c2.3,1.1,4.6,2.2,6.8,3.3
			C271.3,304.6,269.1,303.3,267,302z"/>
		<path d="M275.6,291.5l5.4,5.5l-5.1-5.7c0.1-0.1,0.1-0.1,0.2-0.2l5.3,5.5l-5-5.8c0.1-0.1,0.1-0.1,0.2-0.1l5.3,5.6l-5-5.8
			c0.1,0,0.1-0.1,0.2-0.1l5.2,5.6l-4.9-5.9c0.1,0,0.1-0.1,0.2-0.1l5.2,5.7l-4.9-5.9c-0.1,0.1-0.2,0.1-0.3,0.2c0,0-0.1,0-0.1,0.1
			c-0.1,0.1-1,0.8-1.1,0.9c-0.2,0.2-0.5,0.4-0.7,0.6c-0.1,0.1-0.2,0.2-0.3,0.4C275.5,291.5,275.6,291.5,275.6,291.5z"/>
		<path d="M266.6,302.9c0,0.1-0.1,0.1-0.1,0.2c0,0.1-0.1,0.1-0.1,0.2c0,0-0.1,0.1-0.1,0.1c2.3,1,4.6,2,6.9,3.1
			C271,305.2,268.8,304.1,266.6,302.9z"/>
		<path d="M274.7,292.3c-0.1,0-0.1,0.1-0.2,0.1c0,0,0,0,0.1,0C274.6,292.4,274.7,292.3,274.7,292.3z"/>
		<path d="M278.3,289.1c-0.1,0.1-0.2,0.2-0.3,0.3l5.1,5.7L278.3,289.1z"/>
		<path d="M287.6,295.3l-6.2-8.5c0,0,0,0-0.1,0L287.6,295.3C287.6,295.3,287.6,295.3,287.6,295.3z"/>
		<path d="M288,309.6l1-1.5l-14.7-15c-2,0.2-3.7,0.5-5.3,0.9c0,0,0,0,0,0l18.8,16.1C287.8,309.9,287.9,309.7,288,309.6z"/>
		<path d="M267.5,301.1c0,0-0.1,0.1-0.1,0.1c0,0,0,0.1,0,0.1l10.5,6.2L267.5,301.1z"/>
		<path d="M280.4,287.6c-0.1,0.1-0.2,0.2-0.3,0.3l4.8,5.8L280.4,287.6z"/>
		<path d="M278.9,288.7c-0.1,0.1-0.2,0.2-0.3,0.2l5.1,5.7L278.9,288.7z"/>
		<path d="M280.9,287.2c-0.1,0.1-0.2,0.2-0.3,0.3l4.8,5.8L280.9,287.2z"/>
		<path d="M279.9,288c-0.1,0.1-0.2,0.1-0.3,0.2l4.9,5.7L279.9,288z"/>
		<path d="M279.4,288.3c0,0-0.1,0.1-0.1,0.1c-0.1,0-0.1,0.1-0.2,0.1l5,5.7L279.4,288.3z"/>
	</g>
	<g>
		<path d="M91.5,318.4l11.7,2.8c-0.6,2.2-0.8,3.7-1.2,7.2l-2,21l-0.1,0c-0.9-1.6-3.6-3.6-8.5-4.1l-23.5-2.3
			c-4.9-0.5-7.9,0.9-9.1,2.4l-0.1,0l2.1-21.3c0.2-2.4,0.3-5,0.1-6.3l10.7,0l0,0.1c-3,1.1-4.8,4.3-5.3,8.9l-0.8,7.8l10.5,1l0.4-4.5
			c0.5-4.9,0.6-6.6,0.5-9.3l9.8,2.7l0,0.1c-2.8,0.8-4,2.8-4.4,6.1l-0.5,5.5l13.4,1.3l0.6-6.5c0.5-5.2-1.1-9.6-4.4-12.5L91.5,318.4z"
			/>
		<path d="M88.4,263.1c9.3,2.7,12.2,9.3,9.5,18.4l-1.4,4.7l4.8,1.4c4.5,1.3,7.7,0.5,9.2-0.7l0.1,0l-4.1,14l-0.1,0
			c-0.6-1.7-2.9-4.2-7.6-5.6L76,288.8c-4.5-1.3-7.7-0.5-9.2,0.7l-0.1,0l4.6-15.6C73.9,264.7,80.2,260.7,88.4,263.1z M86.4,271.4
			c-5.3-1.5-8.4,0.2-9.9,5.4l-1,3.4l15.3,4.5l1-3.4C93.5,276,91.4,272.8,86.4,271.4z"/>
		<path d="M125.3,247.8l-8.4,19.4l-0.1,0c-0.3-1.8-2.3-4.5-6.8-6.5l-21.8-9.5c-4.3-1.9-7.6-1.5-9.2-0.5l-0.1,0l5.8-13.4l0.1,0
			c0.3,1.8,2.3,4.5,6.8,6.5l24.4,10.6l2.4-5.4c2.1-4.8,2.1-9.3-0.2-13.1l0.1-0.1l10.2,6.1C127.1,243.8,126.4,245.2,125.3,247.8z"/>
		<path d="M115.6,228.2l-13.2-8c-4.2-2.5-7.6-2.6-9.2-1.8l-0.1-0.1l7.5-12.4l0.1,0.1c0.2,1.7,1.7,4.6,6,7.2l13.8,8.4
			c6.9,4.2,10.8,3.7,14.2-1.8c3-4.9,1.4-9-5.1-13l-13.8-8.4c-4.2-2.5-7.6-2.6-9.1-2l-0.1-0.1L114,184l0.1,0.1
			c0.1,1.9,1.6,4.8,5.9,7.3l13.2,8c10.3,6.3,12.5,14.2,6.5,24C134.1,232.6,126,234.6,115.6,228.2z"/>
		<path d="M175.2,173.2L175.2,173.2l-6.1,10.9c-2.3-0.9-4.5-1.5-7-1.9L144,179l1.8-2.2c3.3-3.9,3.5-7.5-0.5-10.9
			c-3.3-2.8-7.3-2.4-10.5,1.6l-2.6,3.2l20.6,17.3c3.6,3,6.9,3.6,8.5,3.2l0.1,0.1l-9.3,11l-0.1-0.1c0.2-1.8-0.9-5-4.7-8.1l-18.2-15.3
			c-3.6-3-6.9-3.6-8.7-3.1l-0.1-0.1l10.9-13c6.1-7.3,13.4-8.4,19.4-3.5c4.8,4.1,5.8,8.9,3.8,13.8l10.5,1.6
			C169.1,175.2,172.6,174.8,175.2,173.2z"/>
		<path d="M177.2,173.5c0.4-1.8-0.4-5.1-3.8-8.6l-16.3-17.1c-3.4-3.6-6.6-4.5-8.4-4.2l-0.1-0.1l10.6-10.1l0.1,0.1
			c-0.4,1.8,0.4,5.1,3.8,8.6l16.3,17.1c3.4,3.6,6.6,4.5,8.4,4.2l0.1,0.1L177.2,173.5L177.2,173.5z"/>
		<path d="M210.2,130.2c4.7,6.2,2.8,13.3-3.7,18.2l-14.4,11l-0.1-0.1c0.5-1.8,0.5-5.2-2.8-9.4l-13.9-18.2c-3-3.9-6-5.2-8.3-5.1
			l-0.1-0.1l13.1-10c7.1-5.4,12.8-5.5,17.1,0.1c2.8,3.6,2.3,8.6-0.1,11.1l0.1,0.1C201.4,125.3,207.3,126.3,210.2,130.2z
			 M179.8,123.9l6.5,8.5l3.4-2.6c2.8-2.1,3.3-4.9,0.9-7.9c-2.1-2.7-4.7-2.8-7.5-0.6L179.8,123.9z M203.2,135.1
			c-2.4-3.1-5.7-3.9-9.2-1.2l-4.2,3.2l8,10.5l4.2-3.2C205.6,141.7,205.6,138.2,203.2,135.1z"/>
		<path d="M215,121.2l-7.4-13.6c-2.3-4.3-5.3-6-7.1-6.2l-0.1-0.1l12.7-7l0.1,0.1c-0.7,1.5-0.8,4.9,1.6,9.2l7.7,14.1
			c3.9,7.1,7.5,8.6,13.2,5.5c5.1-2.8,5.7-7.1,2-13.8l-7.7-14.1c-2.3-4.3-5.3-6-6.9-6.3l-0.1-0.1l12.6-6.9l0.1,0.1
			c-0.9,1.6-1,4.9,1.4,9.3l7.4,13.6c5.8,10.6,3.8,18.6-6.4,24.1C228.9,134.3,220.9,131.9,215,121.2z"/>
		<path d="M258.5,116.1l-4.5-9l0.1-0.1c5,3.1,9.2,3.3,13.8,1.5c4.5-1.8,5.7-4.5,4.6-7.5c-1.5-3.8-5.4-4-9.8-4.1
			c-5.6-0.2-11.9-0.4-14.8-8.1c-2.1-5.5,0.7-12.4,9.4-15.7c2.9-1.1,5.6-1.8,9.2-2.2l4.2,8.9l-0.1,0c-3.8-2.8-7.3-2.5-10.6-1.2
			c-4.2,1.6-5.9,3.9-4.8,6.7c1.2,3.2,4.8,3.3,9,3.5c5.7,0.2,12.6,0.4,15.8,8.7c2.4,6.2-0.3,13-9.3,16.6
			C266.1,115.8,261.6,116.6,258.5,116.1z"/>
		<path d="M301.8,102.4c1.3-1.2,2.5-4.4,1.7-9.2l-3.9-23.5c-0.5-3.2-2.2-6.8-4.6-7.9l0-0.1l13.4-2.2c0.3,1.2,0.9,2.3,3.4,5.2
			l10.9,12.8c2.3,2.6,4.8,6.5,7.4,10.7l0.2,0c-1.6-4.6-2.4-8.7-3-12l-1.8-10.6c-0.8-4.9-2.8-7.5-4.5-8.2l0-0.1l13.6-2.3l0,0.1
			c-1.4,1.3-2.5,4.4-1.7,9.2l3.9,23.2c0.8,4.8,2.9,7.4,4.6,8.2l0,0.1L329,98c-0.9-1.5-2.4-3.4-3.9-5.1l-10.6-12.1
			c-3.6-4.1-5.7-7.3-8.4-12.4l-0.2,0c1.9,5.4,2.6,9.2,3.4,13.5l1.7,10c0.8,4.9,2.8,7.5,4.5,8.2l0,0.1l-13.6,2.3L301.8,102.4z"/>
		<path d="M346,75.1c0.1-13.4,8.5-22.3,22.3-22.1c12.8,0.1,21.2,8.8,21.1,21.6c-0.1,13.3-9.1,22.3-22.4,22.2
			C353.7,96.7,345.9,87.3,346,75.1z M380.6,75.1c0.1-10.1-4.8-15.9-12.9-16c-7.9-0.1-12.7,6.1-12.8,15.4c-0.1,9.8,4.3,16,12.8,16
			C375.1,90.6,380.5,84.6,380.6,75.1z"/>
		<path d="M394,95.3l0.5-10.1l0.1,0c2.8,5.2,6.4,7.5,11.2,8.1c4.8,0.6,7.2-1.1,7.7-4.2c0.6-4.1-2.7-6.2-6.5-8.4
			c-4.8-2.9-10.1-6.2-8.9-14.4c0.9-5.8,6.8-10.4,15.9-9c3.1,0.5,5.8,1.3,9.1,2.7l-0.7,9.8l-0.1,0c-1.9-4.3-5.1-5.8-8.6-6.3
			c-4.5-0.7-7,0.5-7.5,3.5c-0.5,3.4,2.6,5.3,6.1,7.5c4.9,3,10.8,6.6,9.4,15.4c-1,6.5-6.7,11.2-16.3,9.8
			C400.8,98.9,396.4,97.3,394,95.3z"/>
		<path d="M439.2,104.2l2.3-9.8l0.1,0c1.9,5.6,5,8.4,9.7,9.9c4.6,1.4,7.2,0.2,8.3-2.9c1.3-3.9-1.6-6.5-4.9-9.4
			c-4.2-3.7-8.9-7.9-6.2-15.7c1.9-5.6,8.5-9.1,17.2-6.1c2.9,1,5.5,2.2,8.5,4.2l-2.4,9.5l-0.1,0c-1.2-4.6-4.1-6.6-7.3-7.7
			c-4.3-1.5-7-0.7-8,2.1c-1.1,3.3,1.6,5.7,4.8,8.4c4.3,3.8,9.5,8.3,6.6,16.8c-2.1,6.3-8.5,9.8-17.7,6.8
			C445.3,108.9,441.3,106.6,439.2,104.2z"/>
		<path d="M477,101.1l6.9-13.8c2.2-4.4,2-7.8,1.1-9.3l0.1-0.1l13,6.5l-0.1,0.1c-1.7,0.3-4.5,2.1-6.7,6.5l-7.2,14.4
			c-3.6,7.2-2.8,11.1,3,14c5.2,2.6,9.1,0.6,12.5-6.2l7.2-14.4c2.2-4.4,2-7.8,1.3-9.3l0.1-0.1l12.8,6.4l-0.1,0.1
			c-1.8,0.2-4.6,2-6.8,6.4l-6.9,13.8c-5.4,10.8-13.1,13.6-23.4,8.4C474.1,119.9,471.5,111.9,477,101.1z"/>
		<path d="M547.4,130.5c-5.6,8-12.8,8.5-20.5,3.1l-4-2.8l-2.8,4.1c-2.7,3.9-3,7.2-2.3,8.9l-0.1,0.1l-12-8.4l0.1-0.1
			c1.8,0,4.9-1.4,7.7-5.4l13.7-19.5c2.7-3.9,3-7.2,2.3-8.9l0.1-0.1l13.3,9.4C550.6,116.3,552.4,123.5,547.4,130.5z M540.2,126
			c3.2-4.5,2.5-8-1.9-11.1l-2.9-2l-9.2,13l2.8,2.1C533.6,131.1,537.3,130.2,540.2,126z"/>
		<path d="M564.2,168l-9.3,7.6c-1.4-1.8-2.4-2.9-5-5.3L534.4,156l0.1-0.1c1.8,0.3,5-0.7,8.4-4.3l16-17.3c3.4-3.6,4.1-6.9,3.6-8.7
			l0.1-0.1l15.8,14.5c1.8,1.6,3.8,3.3,5,3.9l-6.5,8.5l-0.1,0c0.9-3.1-0.5-6.4-3.9-9.6l-5.8-5.3l-7.1,7.7l3.3,3.1
			c3.6,3.4,4.9,4.4,7.1,6l-8.1,6.2l-0.1-0.1c1.1-2.7,0.2-4.9-2.2-7.2l-4-3.7l-9.1,9.9l4.8,4.4c3.9,3.6,8.3,4.9,12.6,4L564.2,168z"/>
		<path d="M584.1,207.6L584.1,207.6l-9.6-7.9c1.3-2.1,2.3-4.1,3.2-6.6l6.3-17.2l1.8,2.2c3.3,4,6.7,4.8,10.8,1.5
			c3.4-2.8,3.7-6.7,0.3-10.6l-2.7-3.2l-20.7,17.1c-3.6,3-4.8,6.1-4.7,7.8l-0.1,0.1l-9.2-11.1l0.1-0.1c1.8,0.5,5.1,0,8.9-3.1
			l18.4-15.2c3.6-3,4.8-6.1,4.6-8l0.1-0.1l10.8,13.1c6.1,7.4,5.9,14.7-0.1,19.7c-4.9,4-9.8,4.1-14.3,1.3l-3.4,10
			C583.2,201.2,583,204.7,584.1,207.6z"/>
		<path d="M584.5,208.4l8-6.2l0.1,0.1c-2,5.5-1.4,9.7,1.3,13.8c2.7,4,5.5,4.7,8.2,3c3.5-2.2,2.9-6.1,2.1-10.4
			c-0.9-5.5-1.9-11.7,5.1-16.2c5-3.1,12.3-1.7,17.2,6.1c1.6,2.6,2.8,5.2,3.9,8.6l-7.9,5.9l-0.1-0.1c2-4.3,1-7.7-0.9-10.6
			c-2.4-3.8-5-5-7.5-3.4c-2.9,1.8-2.3,5.4-1.6,9.5c1,5.7,2.1,12.4-5.5,17.2c-5.6,3.5-12.8,2.3-18-5.9
			C586.3,215.9,584.6,211.6,584.5,208.4z"/>
		<path d="M640.1,249.1L640,249c1.6-2.3,2.2-5.7,0.7-8.9l-1.9-4l-23.5,11.1c-4.6,2.2-6.8,5-6.9,7.3l-0.1,0.1l-6.6-14l0.1-0.1
			c1.7,1.1,5.4,1.5,10-0.7l23.5-11.1l-1.9-4.1c-1.5-3.2-4.6-4.9-7.3-5.1l0-0.1l10.3-3.7c0.8,2.6,1.8,5,3.1,7.6l6.2,13.2
			c1.2,2.6,2.4,4.9,3.9,7.2L640.1,249.1z"/>
		<path d="M613.1,265.8c1.5,1.1,4.8,1.7,9.4,0.1l22.2-7.8c4.7-1.6,6.8-4.2,7.3-6l0.1,0L657,266l-0.1,0c-1.5-1.1-4.8-1.7-9.4-0.1
			l-22.2,7.8c-4.7,1.6-6.8,4.2-7.3,6l-0.1,0l-4.9-13.9L613.1,265.8z"/>
		<path d="M657.1,308l-0.1-0.1c2-1.9,3.3-5.1,2.5-8.6l-1-4.4l-25.2,6.1c-5,1.2-7.7,3.6-8.2,5.7l-0.1,0l-3.6-15l0.1,0
			c1.4,1.4,5,2.5,9.9,1.4l25.2-6.1l-1.1-4.4c-0.8-3.5-3.5-5.7-6.1-6.5l0-0.1l10.9-1.6c0.3,2.8,0.8,5.2,1.4,8.1l3.4,14.2
			c0.7,2.8,1.4,5.3,2.4,7.8L657.1,308z"/>
		<path d="M641.9,347.2l-12-0.4c0.1-2.2,0.1-3.8-0.3-7.3l-2.2-20.9l0.1,0c1.2,1.4,4.3,2.8,9.1,2.3l23.4-2.5c4.9-0.5,7.6-2.5,8.4-4.1
			l0.1,0l2.3,21.3c0.3,2.4,0.7,5,1.1,6.2l-10.5,2.1l-0.1-0.1c2.8-1.7,3.9-5.2,3.4-9.8l-0.8-7.8l-10.4,1.1l0.5,4.5
			c0.5,4.9,0.8,6.6,1.4,9.2l-10.2-0.7l0-0.1c2.6-1.3,3.4-3.5,3-6.9l-0.6-5.5l-13.4,1.4l0.7,6.5c0.6,5.2,3,9.2,6.9,11.3L641.9,347.2z
			"/>
	</g>
	<g>
		<path d="M264.8,644.1l-6,10.4c-1.9-1.2-3.3-1.9-6.6-3.2l-19.5-7.9l0-0.1c1.8-0.4,4.5-2.4,6.3-7l8.9-21.8c1.9-4.6,1.4-7.9,0.3-9.4
			l0-0.1l19.8,8c2.2,0.9,4.7,1.7,6,1.9l-3.1,10.3l-0.1,0c-0.2-3.2-2.7-5.9-7-7.6l-7.3-3l-3.9,9.7l4.2,1.7c4.6,1.9,6.2,2.4,8.8,3.1
			l-5.4,8.6l-0.1,0c0.1-2.9-1.5-4.7-4.6-5.9l-5.1-2.1l-5,12.4l6,2.4C256.4,646.6,261,646.4,264.8,644.1L264.8,644.1z"/>
		<path d="M269.6,657.8c1.7-0.6,4.1-3.1,5.2-7.8l5.7-23.2c0.8-3.1,0.7-7.1-1.1-9.1l0-0.1l13.1,3.2c-0.2,1.2-0.1,2.5,1,6.1l4.9,16.1
			c1,3.3,1.9,7.9,2.5,12.8l0.2,0.1c0.3-4.8,1.2-8.9,2-12.2l2.6-10.4c1.2-4.8,0.4-7.9-0.8-9.3l0-0.1l13.4,3.3l0,0.1
			c-1.8,0.6-4.1,3.1-5.2,7.8l-5.7,22.9c-1.2,4.8-0.3,8,1,9.3l0,0.1l-12.2-3c-0.3-1.7-0.8-4.1-1.5-6.2l-4.9-15.3
			c-1.7-5.1-2.3-8.9-2.8-14.7l-0.2-0.1c-0.4,5.7-1.2,9.5-2.3,13.7l-2.4,9.8c-1.2,4.8-0.4,7.9,0.8,9.3l0,0.1l-13.4-3.3L269.6,657.8z"
			/>
		<path d="M320.3,648.6c1.3-13.4,10.9-20.9,24.4-19.6c3.8,0.4,7,1.1,10.3,2.5l0,10.4l-0.1,0c-2.1-4-6.2-6.2-10.8-6.7
			c-8.4-0.8-14,4.5-14.9,13.6c-0.9,9.1,2.9,16,11.2,16.8c6.4,0.6,10.5-1.6,14-5.4l0.1,0.1l-2.4,10.5c-3.1,0.8-7.9,1.5-12.9,1
			C326.4,670.6,319.2,660.8,320.3,648.6z"/>
		<path d="M382.7,671.7l-21.2,0.6l0-0.1c1.5-1.1,3.1-4,3-8.9l-0.7-23.8c-0.1-4.7-1.9-7.5-3.5-8.5l0-0.1l14.6-0.4l0,0.1
			c-1.5,1.1-3.1,4-3,8.9l0.7,26.5l5.9-0.2c5.2-0.1,9.3-2.1,11.8-5.7l0.1,0.1l-1.2,11.8C387.1,671.6,385.5,671.6,382.7,671.7z"/>
		<path d="M436.6,664.5l0,0.1l-13.3,2.1l0-0.1c0.9-0.9,1-3.4-1.2-7.2l-0.8-1.3l-15.2,2.4l-0.3,1.5c-0.9,4.3,0.1,6.6,1,7.3l0,0.1
			l-12.4,2l0-0.1c1.4-1.7,3.3-5.7,4.2-10.5l4.5-25.6c0.6-3.7-0.9-6-2.2-6.7l0-0.1l15.6-2.5l0,0.1c-1,1.2-1.7,3.8,0,7.1l12.6,22.9
			C431.6,660.2,434.8,663.5,436.6,664.5z M408.4,647.9l-1.2,6.6l11.3-1.8l-3.2-5.9c-2-3.6-4.1-7.3-5.4-11.8l-0.2,0
			C409.9,639.7,409.1,643.8,408.4,647.9z"/>
		<path d="M448.3,661c0.8-1.4,0.8-4.5-1.8-8l-15.8-21.4c-1.9-2.6-4.6-5.1-7.5-6.1l0-0.1l13.4-4l0,0.1c-0.6,1.4-0.3,3.7,1.1,5.7
			l9.3,13c1.7,2.4,4.6,6.8,6.5,10.8l0.2-0.1c-0.5-4.5-0.6-9.7-0.5-12.7l0.5-15.8c0.1-2.5-0.7-4.7-2-5.5l0-0.1l12.2-3.6l0,0.1
			c-1.6,1.8-2.5,4.9-2.7,8.6l-1.3,27c-0.2,4.4,1.4,7,2.9,7.7l0,0.1l-14.6,4.3L448.3,661z"/>
		<path d="M504.3,627.6l3.3,11.5c-2.2,0.6-3.6,1.1-6.8,2.5l-19.2,8.6l0-0.1c0.9-1.5,1.3-4.9-0.7-9.4l-9.7-21.5
			c-2-4.5-4.7-6.4-6.6-6.7l0-0.1l19.5-8.8c2.2-1,4.5-2.2,5.6-3l5.3,9.3l-0.1,0.1c-2.5-2.1-6.1-2.1-10.4-0.2l-7.2,3.2l4.3,9.6
			l4.1-1.9c4.5-2,6-2.8,8.3-4.2l2.5,9.9l-0.1,0c-2-2-4.4-2.1-7.5-0.8l-5,2.2l5.5,12.2l5.9-2.7c4.8-2.2,7.8-5.7,8.6-10L504.3,627.6z"
			/>
	</g>
</g>
</svg>
